<?xml version="1.0" encoding="utf-8"?>
<svg xmlns="http://www.w3.org/2000/svg" viewBox="0 0 50 50" fill="#5098b8"><path d="M 12 3.6132812 L 12 28 L 9 28 L 9 23 L 7 23 L 7 28 L 4 28 L 4 46 L 21 46 L 35 46 L 46 46 L 46 15 L 35 15 L 35 11.279297 L 32 10.279297 L 32 4 L 30 4 L 30 9.6113281 L 28 8.9453125 L 28 4 L 26 4 L 26 8.2792969 L 12 3.6132812 z M 14 6.3886719 L 33 12.720703 L 33 44 L 28 44 L 28 40.855469 C 29.715786 40.405591 31 38.850301 31 37 C 31 34.802706 29.197294 33 27 33 C 24.802706 33 23 34.802706 23 37 C 23 38.850301 24.284214 40.405591 26 40.855469 L 26 44 L 21 44 L 21 28 L 14 28 L 14 6.3886719 z M 16 12 L 16 14 L 22 14 L 22 12 L 16 12 z M 16 16 L 16 18 L 31 18 L 31 16 L 16 16 z M 37 19 L 42 19 L 42 22 L 37 22 L 37 19 z M 16 20 L 16 22 L 24 22 L 24 20 L 16 20 z M 26 20 L 26 22 L 31 22 L 31 20 L 26 20 z M 16 24 L 16 26 L 31 26 L 31 24 L 16 24 z M 37 24 L 42 24 L 42 27 L 37 27 L 37 24 z M 23 28 L 23 30 L 31 30 L 31 28 L 23 28 z M 37 29 L 42 29 L 42 32 L 37 32 L 37 29 z M 8 32 L 11 32 L 11 34 L 8 34 L 8 32 z M 14 32 L 17 32 L 17 34 L 14 34 L 14 32 z M 37 34 L 42 34 L 42 37 L 37 37 L 37 34 z M 8 36 L 11 36 L 11 38 L 8 38 L 8 36 z M 14 36 L 17 36 L 17 38 L 14 38 L 14 36 z M 37 39 L 42 39 L 42 42 L 37 42 L 37 39 z M 8 40 L 11 40 L 11 42 L 8 42 L 8 40 z M 14 40 L 17 40 L 17 42 L 14 42 L 14 40 z" fill="#5098b8"/></svg>
