<?xml version="1.0" encoding="utf-8"?>
<svg xmlns="http://www.w3.org/2000/svg" viewBox="0 0 50 50" fill="#5098b8"><path d="M 41 3 C 38.96 6.94 36.340625 10.900625 32.640625 15.390625 L 32.630859 15.400391 C 34.830859 17.630391 36.459531 20.600313 37.269531 24.070312 C 39.799531 21.400312 42.410703 18.860469 44.970703 16.730469 C 45.090703 16.640469 45.180234 16.520859 45.240234 16.380859 C 45.750234 15.290859 46 14.080781 46 12.800781 C 46 8.7807812 43.94 5.29 41 3 z M 33.117188 3.1015625 C 32.33959 3.1020898 31.800078 3.1957813 31.736328 3.2070312 C 31.446328 3.2570313 31.196641 3.4277344 31.056641 3.6777344 C 29.546641 6.2577344 27.629687 8.7491406 25.429688 11.369141 C 27.529688 11.839141 29.460859 12.770312 31.130859 14.070312 C 33.880859 10.730313 36.086484 7.7172656 37.896484 4.6972656 C 36.371484 3.3597656 34.413184 3.1006836 33.117188 3.1015625 z M 23.919922 13.119141 C 22.279922 14.979141 20.580391 16.780703 18.900391 18.470703 C 24.710391 20.000703 29.109453 25.059375 30.439453 31.859375 L 35.599609 25.900391 C 34.489609 18.860391 29.969922 13.919141 23.919922 13.119141 z M 17.199219 20.150391 C 11.969219 25.270391 7.4508594 28.999531 7.1308594 29.269531 C 6.7108594 29.579531 6.3094531 29.929844 5.9394531 30.339844 C 5.3594531 30.959844 4.8496875 31.669219 4.4296875 32.449219 C 5.7196875 31.539219 7.3 31 9 31 C 13.45 31 16 33.55 16 38 C 16 41.42 13.85 44 11 44 C 8.37 44 7 41.48 7 39 L 7 38.589844 L 9.2890625 36.289062 C 9.6790625 35.899062 10.320937 35.899062 10.710938 36.289062 C 11.100938 36.679062 11.100938 37.320937 10.710938 37.710938 L 9.0195312 39.400391 C 9.1095312 40.470391 9.6 42 11 42 C 12.74 42 14 40.32 14 38 C 14 34.68 12.32 33 9 33 C 5.7 33 3.02 35.670703 3 38.970703 L 3 39 C 3.38 44.08 7.709375 47.880859 13.109375 47.880859 C 13.139375 47.880859 13.169219 47.869141 13.199219 47.869141 C 14.129219 47.859141 15.019609 47.749297 15.849609 47.529297 C 19.419609 46.339297 22 42.96 22 39 C 22 35.48 19.930937 32.260781 16.710938 30.800781 C 16.400938 30.660781 16.190625 30.369297 16.140625 30.029297 C 16.090625 29.689297 16.220703 29.350859 16.470703 29.130859 C 16.780703 28.870859 18.140937 27.630625 22.960938 22.640625 C 21.300937 21.350625 19.349219 20.490391 17.199219 20.150391 z M 24.439453 23.980469 C 21.989453 26.520469 20.040078 28.499922 18.830078 29.669922 C 22.010078 31.659922 24 35.18 24 39 C 24 39.34 23.979219 39.669766 23.949219 40.009766 C 25.249219 38.289766 26.880469 36.180625 28.730469 33.890625 C 28.290469 29.840625 26.749453 26.420469 24.439453 23.980469 z M 37.373047 27 C 35.633047 28.889 33.832 30.949625 32 33.140625 L 38.798828 39 L 38.798828 33.763672 L 44 32.71875 L 37.373047 27 z" fill="#5098b8"/></svg>
