<svg width="552" height="736" viewBox="0 0 552 736" fill="none" xmlns="http://www.w3.org/2000/svg">
<rect x="184" width="92" height="92" rx="2" fill="#F5F7FA"/>
<rect x="276" width="92" height="92" rx="2" fill="#F5F7FA"/>
<rect x="92" y="92" width="92" height="92" rx="2" fill="#F5F7FA"/>
<rect x="184" y="92" width="92" height="92" rx="2" fill="#F5F7FA"/>
<rect x="276" y="92" width="92" height="92" rx="2" fill="#F5F7FA"/>
<rect x="368" y="92" width="92" height="92" rx="2" fill="#F5F7FA"/>
<rect y="184" width="92" height="92" rx="2" fill="#F5F7FA"/>
<rect x="92" y="184" width="92" height="92" rx="2" fill="#F5F7FA"/>
<rect x="184" y="184" width="92" height="92" rx="2" fill="#F5F7FA"/>
<rect x="276" y="184" width="92" height="92" rx="2" fill="#F5F7FA"/>
<rect x="368" y="184" width="92" height="92" rx="2" fill="#F5F7FA"/>
<rect x="460" y="184" width="92" height="92" rx="2" fill="#F5F7FA"/>
<rect y="276" width="92" height="92" rx="2" fill="#F5F7FA"/>
<rect x="184" y="276" width="92" height="92" rx="2" fill="#F5F7FA"/>
<rect x="276" y="276" width="92" height="92" rx="2" fill="#F5F7FA"/>
<rect x="460" y="276" width="92" height="92" rx="2" fill="#F5F7FA"/>
<rect y="368" width="92" height="92" rx="2" fill="#F5F7FA"/>
<rect x="184" y="368" width="92" height="92" rx="2" fill="#F5F7FA"/>
<rect x="276" y="368" width="92" height="92" rx="2" fill="#F5F7FA"/>
<rect x="460" y="368" width="92" height="92" rx="2" fill="#F5F7FA"/>
<rect y="460" width="92" height="92" rx="2" fill="#F5F7FA"/>
<rect x="92" y="460" width="92" height="92" rx="2" fill="#F5F7FA"/>
<rect x="184" y="460" width="92" height="92" rx="2" fill="#F5F7FA"/>
<rect x="276" y="460" width="92" height="92" rx="2" fill="#F5F7FA"/>
<rect x="368" y="460" width="92" height="92" rx="2" fill="#F5F7FA"/>
<rect x="460" y="460" width="92" height="92" rx="2" fill="#F5F7FA"/>
<rect y="552" width="92" height="92" rx="2" fill="#F5F7FA"/>
<rect x="92" y="552" width="92" height="92" rx="2" fill="#F5F7FA"/>
<rect x="184" y="552" width="92" height="92" rx="2" fill="#F5F7FA"/>
<rect x="276" y="552" width="92" height="92" rx="2" fill="#F5F7FA"/>
<rect x="368" y="552" width="92" height="92" rx="2" fill="#F5F7FA"/>
<rect x="460" y="552" width="92" height="92" rx="2" fill="#F5F7FA"/>
<rect y="644" width="92" height="92" rx="2" fill="#F5F7FA"/>
<rect x="184" y="644" width="92" height="92" rx="2" fill="#F5F7FA"/>
<rect x="368" y="644" width="92" height="92" rx="2" fill="#F5F7FA"/>
</svg>
