<svg xmlns="http://www.w3.org/2000/svg" viewBox="0 0 238.71 238.71"><defs><style>.a{fill:#fff;}</style></defs><title>white-tiger-paw</title><path class="a" d="M18.63,192.53c0,.13.67.33.72.48.13.43,0,.6-.24.72,0,0,.4,1.15.48,1.44-.35-.25-.53-.12-1-.24-.06-.32-.45-.54-.48-.72C18,193.52,18.55,193,18.63,192.53Zm-2.16,0c.34.09,1.32,1.35,0,1C16.14,193.39,15.8,192.33,16.47,192.53Zm121.44-1.44c0,.08-.18.83-.24,1.2,1.63,1.28,4.21,2.9,2.64-1C139.29,191.18,138.82,191.22,137.91,191.09Zm6.24-1.44a22.35,22.35,0,0,0-2.4,2.88l.48-.48a8.45,8.45,0,0,1,2.88-.48c-.13-.78-.15-1-.24-1.92Zm-4.08-5.52a6.93,6.93,0,0,1,0,1.44c2.37.6,1.5,1.21,2.16-1.2-.22-.18-.41-.16-.48-.48-.4-.12-.65,0-1-.24C140.74,183.78,140.21,184,140.07,184.13Zm2.4-18.72a2.48,2.48,0,0,1,0,.72c.25.12.73.66,1,.72,2.56.57,1.52-1.85,1.2-2.64a3.43,3.43,0,0,1-1,0C143.37,164.59,142.76,165,142.47,165.41Zm-5.28-19.92c.4.87.39,2.26,2.16,1.68.17-.06.46-.6.72-.72a4.38,4.38,0,0,1,0-1.2c-.23-.18-.79-.9-1-1s-.49.15-.72,0C138.06,144.68,137.53,145.07,137.19,145.49Zm33.36-11.28a10,10,0,0,1,1.68,4.08c.24,0,.6.45.72.48,1.34.24,2.19-.72,2.88,1,.4,1-.06,2.84,1.2,2.16.36-.21.41-2.18.48-2.64a8,8,0,0,1-3.84-2.16c.06-.18.25-.71.24-.72A34.41,34.41,0,0,0,170.55,134.21ZM124,130.13v.48a2.39,2.39,0,0,0-.24,1.2,10.35,10.35,0,0,0,1,1.68h.48c.13.11.31.66.48.72s.7-.12,1,0a11.33,11.33,0,0,1,.72-1c.07-.59-.43-.5-.48-.72-.16-.59.28-.93.24-1.2C127,130.87,125.12,129.6,124,130.13Zm90.24-5.28c-.13.25-.67.54-.72.72a10.15,10.15,0,0,0-.24,1.92c-.83.27-1.65.64-2.4,1,.6,1,.9,1.84,1.92,2.4,4.34,2.34,2.17-3.69,1.92-6Zm-81.12-2.64a3.78,3.78,0,0,1-.72.72c.54,1.1.76,2.49,2.4,1.92.46-.18.4-.72.72-1-.24-.16-.47.1-.72,0-.58-.23-.65-1.5-1.2-1.68Zm2.64-3.12c-.12.31-.43.33-.72.48a8,8,0,0,1,.24,1.44c.4,0,.23.28.48.48.11-.11.8,0,1,0-.14-1-.12-1.52-.24-2.4Zm79.2-4.32s.17.69.24,1c-.27,0-.39.44-.48.48a12.69,12.69,0,0,1-1.92.24c-.18,2.23-.83,3.25-.72,5-1-1.8-1.64-1.65-3.12-.48-.24-.29-.41-1-.72-1.2-.78-.44-4.2-.21-5.52-.48-.06.25-.45.37-.48.48-.31.87,0,2.41,0,3.36l-.48.24c-.18-.36-.45-.48-.72-.72.62-2.07.06-4.8-2.4-3.12-.31.2-.22,1-.48,1.2a6.39,6.39,0,0,1-1.2.48c.17.66-.07,1.12.24,1.68.46.84,2.54.72,2.88,1.68.14.4-.15.78,0,1.2a2.89,2.89,0,0,0-.72,0,4.88,4.88,0,0,1-1.44-2.16,20.75,20.75,0,0,1-3.12-.24c-.09,0-.58-.7-.72-.72-.91-.15-1.23.56-2.16.24-.11,0-.24-.44-.48-.48,1.26-.72,1.15-.6,1-2.4l-.72-.24c-.21.28-.56.23-.72.48s-.07,1-.24,1.2c-.57.45-1.42-.1-1.92.72a19.79,19.79,0,0,0-.72,2.64c-4.65-1.37-2.92,2.14-5.76,2.16a6.66,6.66,0,0,0-.72-.24v-.48a4,4,0,0,1,1.2,0c-.12-.08.2-.42.24-.48-.24-.2-.37-.13-.48-.48a12.57,12.57,0,0,0-3.12-.48c-.45.07-1.07,1-1.44,1.2-.9.51-1.87.48-2.88,1-.18.07-.49.66-.72.72-.81.15-1-.48-1.68-.24a3.92,3.92,0,0,0-.48.72c-.86,1.09-.66,1.62,0,2.88-.56.13-1.09.26-1.92.48.11-.26-.1-.7,0-1a3.92,3.92,0,0,1,.72-.48c-.15-.42.14-.8,0-1.2-.06-.14-.62-.49-.72-.72a6.75,6.75,0,0,1-1.44.24c-.12,1-.38,2.63-.48,3.6a6.93,6.93,0,0,0-1.44,0c.12.33-.13.85,0,1.2s1.3.74,1.68,1c0,0-.1,1.34-.24,1-.15.24.1.44,0,.72-.06.12-.6.49-.72.72h-.48a10.11,10.11,0,0,0-1-1.92c-1.08-1.44-.9-.59-2.64-1.2-.08,0-.42-.7-.48-.72-.42-.15-.8.14-1.2,0-.13.25-.67.54-.72.72-.23.69.05,1.39-.24,1.92-.48.83-1.63.5-2.4,1-.94.54-1.43,2.64-1.68,3.84-1.91-.9-.75-.9-2.64,0,.08.41-.12.54-.24,1a3.54,3.54,0,0,0,2.16,1c-.08,0-.06.87-.24,1a4,4,0,0,1-1.2,0c-.14.27-.67.7-.72,1-.23,1,.43,2,.48,2.64,0,.48-.26.71-.24,1h-.48c-.5-.18-.95-1.54-1.44-1.68-.77-.23-.85.26-1.44.24-.62,2.07-.78,1.9.72,3.12-.49.43.1,3.13.24,4.08-.36-.36-.83-.61-1.2-1,.49,0-1.31-.21-.72,0-.28.23-.69,0-1,.24v.48c-.75,2.16.67,2.42,1.44,4.32-.08.07,0,.61,0,.72-.12.29-1.28.63-1.44,1s0,.71,0,1-.71,1.12-.72,1.2c-.12.45.1,1,0,1.44a11,11,0,0,1,1.68,1.44c.26.39.16.88.48,1.2s.9.32,1.2.72a18.72,18.72,0,0,1,1.68,4.8,3.66,3.66,0,0,1,1.2.24c-.11.09-.18.61-.24.72-.23.31-1,.41-1.2.72-.44.74.08,2.61,0,3.84.44.18.11,0,.24.48a12.23,12.23,0,0,0,2.64,0c-.11.26.06.68,0,1-.21.75-1.62,1.31-.72,2.64.13.19.89.25,1,.48.34,1.14-.81,1.77.24,2.4a9.39,9.39,0,0,0,1.68.48c-.1.85-.5,2,0,2.88.08.15.67.32.72.48.15.56-.23,1.38,0,1.92.05.13.35.12.48.24.64.57,1.27.48,1.92,1,.23.17.06.44.24.72.94,1.52,2.21.66,3.36,0a32.47,32.47,0,0,1-.48,3.84,7,7,0,0,0,1.2.24c.66-.44,1.42-.29,1.68-1.2.06-.26-.13-.75,0-1s.87-.09,1-.24c.09.19-.06.51,0,.72s.69.64.72.72c.08.38-.33,1.38-.24,1.44a1.37,1.37,0,0,0-.48.48,4.32,4.32,0,0,1,0,.72,4.89,4.89,0,0,0,3.36.48,4.81,4.81,0,0,0,0,1.2c-.2.28-.69.48-1,.72a4.4,4.4,0,0,1,0,1c.34.13.31.39.48.72a4.33,4.33,0,0,0,2.16-.72,7.94,7.94,0,0,0,1.2-.72c.42-.62.1-1.32.72-1.68.3-.18.84.09,1.2,0l.48-.48c1.25-.3.79.09,1.68.24a5.34,5.34,0,0,0,0,1.44c-.66.24-1.37.48-1.92.72,0,.39.24,1.68.24,1.68a3.06,3.06,0,0,0,1.44.24c.33-.07.87-.77,1.2-1,1.49-.95,2.35-.38,4.08-1,.09,0,.21-.43.48-.48-.11-.54.21-1.21,0-1.68h-.24c-.44,0-.88-.55-1.2-.72a7.7,7.7,0,0,0,0-1.44c.21-.19.34-.72.72-.72h.24c.45.42,1,1.5,1.68,1.68.27.06.69-.11,1,0-.29.87-.2,1.21-.48,2.16.86.37,2.3,1.17,3.6.48s.34-1.57.24-2.16.27-.9.24-1.2a14.71,14.71,0,0,0,4.56-1c.07,0,.17-.47.24-.48H195c.35-.59,0-1.38.24-2.16.17-.53,1-.79,1.2-1.2s0-.74.24-1.2c1,0,3.23.14,4.32-.48.48-.29.74-1.11,1.2-1.44.21-.17.46.09.72,0,1.56-.61.5-2.17,0-2.88.83-.23,2.38-.46,2.64-1.2.12-.39-.19-1.11,0-1.44h.24a11.74,11.74,0,0,0,2.4-2.16c.24.11.69-.1,1,0,.58.2.71,1.44,2.16,1,.17-.06.45-.6.72-.72-.23-.37,0-.89-.24-1.2-.12-.15-1.33-.67-1.44-1s.15-.49,0-.72c2.25-.6,2.68-.49,2.4-3.12.81-.51,1.59-.65,2.4-1.2.24-.18.19-.54.48-.72-.18-1.13-.47-2.62.48-3.12,1.75-.94,2.3.55,3.12.72,1,.19,1.12-.38,1.68-.48-.06-.58.29-.39.24-1,0-.23-.54-.77-.48-1.2,0-.12.69-.68.72-.72.1-.29-.14-.46,0-.72-.39-.18-1-.5-1.44-.72.69-1.52.6-2,0-3.6.78.42,1.54.84,2.4,1.2-.06,0,1.2,0,1.44,0a17.09,17.09,0,0,1,1.2-2.88c.61-.45,1.5-.09,2.16-.48.51-.32.2-1.36,0-1.2.1-.39-.13-.84,0-1.2,0-.11.42-.24.48-.48a5.43,5.43,0,0,0,3.36-.48c.18-1.73.2-2.45-1-3.36-.12-.09-.68-.35-.72-.48-.18-.53.08-1.14,0-1.68.38-.12.39.19.48-.24.39.17.79-.18,1.2,0s.2,1,.48,1.2a2.37,2.37,0,0,0,3.6-1c.28-.93-.13-.91-.24-1.68h-.48l.24-1.92a7.35,7.35,0,0,1-1.44,0c-.15-.42.14-.8,0-1.2-.06-.16-.63-.34-.72-.48-.26-.42,0-.75-.24-1.2.26-.15.43-.66.72-.72s.56.1.72,0c.44-.33.69-1.51,1.2-1.68a8.22,8.22,0,0,1,2.16,0c.37-1.3.81-2.34,1.2-3.36-.18-.12-.26-.84-.48-1-.47-.27-1.08-.25-1.44-.48-1.41-.9,1.57-1.61,2.16-2.16.22-.23,0-.74.24-1-.27-.06-3.27-.66-3.36-.72s-.82-1.88-1-2.16a6.2,6.2,0,0,0,2.16-1.2c-.36-.32-.33-.91-.72-1.2s-.55-.12-1-.24c0-.05-.18-.88-.24-1.2.75-.36,1.29-.6,1.92-1-.13-.35.12-.87,0-1.2-.06-.16-.63-.34-.72-.48a12,12,0,0,1-.72-1.92c-.13.39-.24-.72-.24-.72,1-.6.27-2-1-1.92l-.48.48c-.46.22-.8.3-1.2.48,0,0,0,1.56,0,1.44.14.3.6.48.72.72.24.51.09,1,.24,1.44-.54-.47-1-.72-1.44-1.2-.42.14-.8-.15-1.2,0s-.67,1.09-1,1.2-.8-.15-1.2,0l-.24-.48c-.12.36-.24-.92-.24-1s.69-.43.72-.48c.17-.61-.3-.92-.24-1.2h-.48c-.33.1-.63,1.21-1,1.44-.17.1-.56,0-.72,0s-.79.66-1,.72a14.21,14.21,0,0,1-4.56.48,7.33,7.33,0,0,0-.72,2.16s-.72,0-.72,0a25.66,25.66,0,0,1-.24-2.64,7.43,7.43,0,0,1,1.44-.24,15.87,15.87,0,0,0-.48-3.6,3.48,3.48,0,0,0,2.4,0l.24-.48a5.56,5.56,0,0,1,1.68,0c-.05-.23.33-.48.24-1-.19-1-1.58-1.92-2.16-2.64-.26.35,0,.6-.24,1s-.47,0-.72.24-.5.9-.72,1.2c-.05-.07-.66-.18-.72-.24-.21-.21-.15-.65-.24-1-.26-.06-.39-.45-.48-.48-.9-.31-1.38.31-1.92.48l-.24-.24a8.64,8.64,0,0,0-.24-2.64,3.43,3.43,0,0,1-1,0C215.71,114.11,215.07,114.37,215,114.77Zm-100.8-12c0,.12,0,3.12,0,3.12-.12.18-.61.29-.72.48s-.11,1.08-.24,1.2c-.36.29-.6.12-1.2.24.3.15-.57.28-.72.24s-.23-.41-.48-.48c.16-1.26.48-2.67-.72-3.12-.48-.19-.56.34-1.2.24-.2,0-.77-.69-1-.72-1.9-.41-2.72.85-3.6,1.44-.24-.16-.47.09-.72,0s-.62-1-1-1.2a5.73,5.73,0,0,0-3.84.24c-1.15.61-.54,3.18-1.2,4.32-.11.17-1.66,1.42-1.92,1.68-.28-.27-1.18-1.37-1.44-1.44-2.51-.72-4,3.57-5.28-1a3.31,3.31,0,0,0-1.44-.24l-.24.48c-.8.51-1.46,1.55-.24,2.16.2.09-.34.26-.24.48-.53.13-1.16.57-1.68.48s-.54-1.19-1.92-1A22.93,22.93,0,0,0,81,112.13a11.57,11.57,0,0,1-2.4-.24l-.24.72c-1.9.49.16-1,.48-1.2-.07-.37-.26-1.12-.24-1.2-1-.15-1.25-.11-2.16-.24-.07.31-.29.32-.48.48.25,1,.24,1.38.48,2.16-.61.27-1.42.15-1.68.72a9,9,0,0,0-.24,2.16c-.49-.15-.48.38-1,.24-.32-.1-.5-1.07-1-1.2-1.25-.38-2.39-.08-3.6-.24a10.61,10.61,0,0,1-2.4,5.52c-.11-.09-.61,0-.72,0a6,6,0,0,1-.72-2.4c-.41-.12-.38.18-.48-.24-.25.12-.71-.09-1,0s-.23.39-.48.48c0,0,0,1.12.24.72l-.24,1c-.56.08-1.16-.18-1.68,0-.35.11-.62,1-1,1.2-1.76.76-3.29-.25-4.56-.72a4.66,4.66,0,0,0-1.2,1.92,12.28,12.28,0,0,0,0-1.92c0-.15-.44-.18-.48-.48-.35.12-.86-.13-1.2,0-.19.06-.63.53-1,.72-.23-.15-.48-.84-.72-1a10.43,10.43,0,0,0-3.36-.48s-.2.43-.24.48c-1.4,1.23-.68.93-.48,2.4l.24,1s1.12,0,.72-.24c.28,0,.67,0,1,0a7.68,7.68,0,0,0,0,1c-.57-.12-.4.34-1,.24-.2,0-.77-.92-1-1a10.35,10.35,0,0,0-3.84,1c-.24.13-.07.54-.24.72s-.83.24-1.2.48c-.16.09-.33.66-.48.72s-.59-.08-.72,0c-.17-.45-.36,0-.48-.24a3.09,3.09,0,0,1,0-1c-.42-.1-.14-.09-.24-.48a5.78,5.78,0,0,1-1.44,0,6.92,6.92,0,0,1-1.92,2.16c-1.16.59-3.9.73-4.56,1.68-.26.35,0,.6-.24,1-.42-.15-.19.27-.24.48-.62-.19,0,.72,0,.72.63.18.78-.26,1.44-.24,0,0,0,.71,0,.72-.59.17-.54.07-1.2.24.36.25-.68.22-.72.24l-.24-1.2c-.17-.1-1.13.13-1.2,0a6.18,6.18,0,0,1,0-1.92c-2.57-.57-1.75-.42-2.88,1.68-.05.07-.72.7-.72.72-.2.85.35,1.61.24,2.16-.06.25-.64.48-.72.72a3.72,3.72,0,0,0-1.2,0,10.3,10.3,0,0,1,.24-1.68c-.21-.17-.43-.15-.48-.48-.46,0-1.68.24-1.68.24a6.07,6.07,0,0,0-.72.24c-.34.32-.15,1.34-.48,1.68-.48.47-1.43.28-1.92.72-.17.13,0,.61-.24.72s-.87-.14-1.2,0c.25-.12-.48-.48-.48-.48s.48-.72.48-.72c.85-.27,1.69-.13,2.16-.72l.48-.72a5,5,0,0,0-.24-1.44c-2.27,0-3.59.27-4.8,1.92-.2.26-.2.83-.48,1-.74.32-1.58-.11-2.16.24a7.45,7.45,0,0,0-1,3.84c0,.16.6.46.72.72a6.3,6.3,0,0,1,1.44,0s-.29.46-.24.48c-1.84.32-1.9.72-2.64,2.16-2.39,0-2.77.19-3.36,1.92v.48c-.49.39-1.41.12-1.92.48-1.18.81-.24,4.17-.24,6.24,1,.28,2.53.77,2.88,1.68.1.25-.16.48,0,.72A29.35,29.35,0,0,0,5,155.57c-.23.76.17,1.26.24,1.92.31,0,.79.36,1.44.24s.63-.75,1-1c0,0,1.06.37.72.48.15.11.64.31.72.48.27.54.05.94.24,1.68-.33.06-.35.45-.48.72-.26-.13-.55-.67-.72-.72-.51-.18-1.16.07-1.68,0-.26.78-1.08,2.21-1,3.12,0,.15.67.61.72.72.36.81-.07.82,0,1.68-.31-.16-.2.36-.72.24-.06,0-.27-.43-.48-.48,1-.36-1.34-.36-.72-.24l-.24,1c1,.58,2.71,1,3.36,1.92.36.51.25,1.29.72,1.68.75.62,1.68.25,1.92,1.44.27,1.37-.68,1.77-.48,2.88.1.6,1.2.95,1.44,1.44a11.65,11.65,0,0,1,.48,1.92c.1,1.08-.28,3.76.24,5h.24c.72.36,1.24,1.68,1.92,1.92h.48c.12.1.07.63.24.72.53.27,1.12-.07,1.68.24s2.38,3,1.44,3.84c1.19.93,3.61,1.55,3.36,3.84,0,0-.63,1-.72,1.2.3-.16.19.36.72.24.26-.07.33-.7.48-1a3.43,3.43,0,0,0,1,0c.5.48,2.45,1.95.72,2.4-.17-.21-.48-.88-.72-1s-.71.11-1,0a3.78,3.78,0,0,1-.72.72s0,.87.24.48c.16.54.1.39.24,1,.48-.23.24,1.68.24,1.68a7.21,7.21,0,0,1,3.6-.48c0-.09.19-.48.24-.48.22-.06,1.18.18,1,.24a15.89,15.89,0,0,0,1.2,1.68c-1.1.33-2.39.36-2.64,1.44,0,.12.06.6,0,.72s-.87.44-1,.72.12.85,0,1.2c.43-.21.8,0,1.2-.24s.79-1.12,1.2-1.44c.81-.66,1.6-1,2.4-1.68a18.34,18.34,0,0,0,1.92,2.64c.29.29,1.28.58,1.44,1,.28.69-.29.89-.24,1.44l.48.72a6.69,6.69,0,0,0,.72,2.64c.26-.11.68.06,1,0,.66-.18,1.39-1.26,1.92-1.68,1.81,1.63,3.33,2.94,6.24,1.44-.16,1.42-.32,2.83,1,3.36.38.15.73-.07,1,.24s.61,1.89.72,2.16c2.72-.41,3.44-.08,5.28,1,.37-.24,1.35-1.31,1.92-1.2,0,0-.19,1.16-.24,1.44a10.3,10.3,0,0,1,1.44,1c.19.37-.1,1,0,1.44s1.15,1.17,1.2,1.44c.1.55-.35.89-.48,1.44a7.17,7.17,0,0,1,2.4-.48c.67.1,1.18,1.13,1.68,1.44s.77,0,1.2.24c.65.37,1.86,2.89,2.16,3.84a14.2,14.2,0,0,1,3.6-.72c.3,0,.82.48,1.44.24v-.24c.39-.21.43-.77.72-1s.74,0,1.2-.24c.72,2.37-.23,1.51,2.16,2.16a3.35,3.35,0,0,1,.48-.72c.27-.12.46.13.72,0,.2.16.49.83.72,1a13.76,13.76,0,0,0,3.36.48c.08.54-.19,1.16,0,1.68.37,1,4.82,1.84,6.24,2.16.1.42-.11.77,0,1.2,0,0,2.09,2.13,2.16,2.16,2.11.95,2.17-.68,3.12-1,1.92-.6,2.62.54,3.36,1,.39.21.76,0,1.2.24.13-.36.4-.33.72-.48-.19-1.35-.12-2.08-.24-2.88.38.09.58-.13,1-.24.21.36.8,1.77,1.2,1.92,1.36.51,3.14-.45,4.08-.48,1.61-.07,1.81.53,2.64,1.2,2.25-1,2.44-.06,5-.48.24,0,1.3-.71,1.44-.72.83-.14,1.64.33,2.16.24.22-.05.7-.61,1-.72-.11-.43.1-.78,0-1.2,0-.09-2.4-3.5.72-2.64.1,0,.53.68.72.72.49.09.73-.29,1-.24-.26-.2.19-1,.24-1.2-.27-.15-.11-.42-.24-.48a4.48,4.48,0,0,0-1.2-.24c0-.49-.26-.72-.24-1,.06-.87,1.51-1.31,1.92-1.92s.16-1.17.48-1.68a7.21,7.21,0,0,1,4.32-1.68c.11,0,.67.69.72.72.25.08.73-.14,1,0s.61,1.05,1,1.2c.18.06.53-.12.72,0,.21-2.72.09-2.09,2.16-2.16a13,13,0,0,1,0,2.16s-.68.44-.72.48c.43,1.62-.1,1.14,1,2.16-.26.07-.38.44-.48.48-.38.12-.82-.12-1.2,0,.38.14-.92.23-1,.24a3.2,3.2,0,0,0-.24-.72c-1.19-1.77-.89-1.68-3.84-1.68A7.15,7.15,0,0,1,117,224c-.27.34-1.11.42-1.44.72s-.23.23-.48.72c0,0,0,.68,0,.72.16,0,.82-.11,1,0,0,.08.17.83.24,1.2-1.19,0,.09,1.88.24,2.16-.79.61-1.44,1.25-2.16,1.92.13.42.3.51.24,1,2.5,1.46,3,1.2,4.32-1.2.16.19.79.25,1,.48s0,.65.24,1c1,1.56,2.14.81,3.36.24a7.24,7.24,0,0,1,.24-3.36c.23.13.7-.12,1,0s.68,1.3,1.2,1.44c1.8.45,2.06-.92,2.88-1.44.42-.28.76,0,1.2-.24s.82-.93,1.2-1.2c.19.09.52-.06.72,0,.38.09.67.82,1,1,.81.37,1.27,0,2.16,0a4.46,4.46,0,0,1,.48-.72c.33-1.3-.74-1.94.24-2.64.25.11.69-.1,1,0s.44,1,.72,1.2c1.28.93,2.33,0,3.36-.48,0-.71,0-1.47,0-2.16-.55-.23-2-.66-2.16-1.2-.1-.27.11-.72,0-1,.62.17.53-.4,1.2,0s.32,1.56,1.92,1.44a3.15,3.15,0,0,0,2.16-1.92s.59-.33.24-.48a1.69,1.69,0,0,1-.72-1.68c0-.12.65-.4.72-.48.56-.75.43-1.34.72-2.4-.21-.17-.43-.15-.48-.48a4.33,4.33,0,0,1-.72,0v-.72c3.28,1.52,3.64.18,6.72-.72a9.32,9.32,0,0,1,.24-1.92c.09-.28.86-.62,1-1s-.1-1,0-1.44c-.22-.18-.41-.16-.48-.48a4,4,0,0,1-1.2,0c-.17-.08-.39-.91-.48-1,.22,0,.56-.37.72-.48,1.32.89.81.78,2.64.72-.06-.58.29-.39.24-1,0-.25-.71-.87-.72-1-.17-.85.38-1.07.48-1.44s-.13-1,0-1.44.89-1,1.2-1.44c-.11-.18,0-.55,0-.72-.14-.55-1.23-.93-1.68-1.2.58-2,1.32-2.65,1.68-5-.2,0-.64-.47-.72-.48-1.44-.33-2.15,1.13-2.88,1.68a3.47,3.47,0,0,0-.48.72c-.11-.49-.27-1.63-.48-2.4-.06-.2-.69-.77-.72-1-.24-1.43,1.17-1.62,1.44-2.64v-.24c-.05.18-.3-.71-.24-1s2-3.69,1-4.32c-1.43-.9-2.3.51-3.12.72-.15,0-.6-.06-.72,0-.06-.27-.45-.39-.48-.48a10.68,10.68,0,0,1,0-2.88c.12.43.24-.24.24-.24-.83-1.81-.65-1.35-2.64-1.2-.22.83-.72,3.9-1.44,4.32s-1.37,0-1.92.24a8.13,8.13,0,0,0-.72.72c-.53.11-.71-.3-1-.24.28,0-.24-.72-.24-.72-.07-.87.88-2.37,1-2.88a6.66,6.66,0,0,0-.48-2.4l.24-.72c.45.09,1-.15,1.44,0,1.12.37.73,2.52,2.64,1.68s.75-2.9.24-4.08c-1.26.09-1.8.07-2.88.24.47-1.63.31-1.46,0-2.88a8.22,8.22,0,0,1-1.2-.48s-1.6,1.55-1.2,1.68c1,.31.47,3.06,0,3.84-.35.56-1.52.93-2.16,1.2.18-3.07-.09-2.42,1.92-4.32-.3-.89-.22-1.11-.48-1.92.12-.1.65-.35.72-.48.21-.47-.21-.71.24-1,0,0-.45-1.26-.48-1.44.24.15.71.08,1,.24s.33.66.48.72,1.15-.18,1-.24c0-.15.67-.35.72-.48.25-.73-.26-1.92,0-2.64.18-.54,1.48-.31,1.2-1.92-.1-.54-1.07-1.1-1.44-1.44.72-1.56.72-.94.24-2.4-.35-1.08-.67-2.25-1.68-2.64-2.63-1-3,.45-2.64,2.64-.17.12-1.15.54-1.2.72v.48h-.48c-.18-.65,0-1.11-.48-1.44l-.24-.24c.11-.12-.07-.57,0-.72H135c.92-.47,1.3-1.38,1.92-2.16-2.36-.43-2.36-1.49-3.12-4.08a10,10,0,0,1,2.4-1.2c1.27-.06,1,.66,1.44,1s.73-.05,1.2.24a6.68,6.68,0,0,1,1-.72c-.18-.71.07-1.19-.24-1.68a10.72,10.72,0,0,0-1-.48c-.23-.9.66-.88.48-1.92-.1-.54-.94-.83-1.2-1.2s-.06-.67-.24-1c-.42-.68-1.46-1.05-2.16-1.44.1-.47-.14-1,0-1.44.07-.27.91-.85,1-1.2.13-1.34-1.27-2.05-2.16-2.4-.49-.2.66-.53,1-.48l.48.48c2.13.57,1.74-1.5,1.68-2.64-.31-.06-.35-.44-.48-.48-1.17-.41-2.69.92-3.36,1.2l-.48-.72c0-.14.67-.35.72-.48a5.34,5.34,0,0,0,0-1.44c.37.15.13-.39.72-.24.1,0,.35.63.48.72,1.22.75,1.72.15,2.64-.48-1-2.44-1-3.4-3.84-1.92a4.33,4.33,0,0,0,0-.72c.95-.42,1.42-.35,1.92-1.2.06-.12.34-.18.48-.24-.11-.27.09-.7,0-1-.17-.48-1.09-.93-1.2-1.44-.31-1.39.21-2.43,0-3.84.23.13.47-.41,1,0s.07,2.41,0,3.36c.46-.07.87.3,1.68,0,.07,0,.17-.47.24-.48,0-.22.68-.63.48-1.44,0-.06-.51-.55-.48-.72,0-.36,1.06-.6,1-1.92-.07-.79-.88-.56-.48-1.68,0-.07.64-.6.72-.72s-.05-.63-.24-.24c-.15-.09-.26-.88-.48-1a6.86,6.86,0,0,0-1.92,0v-.48h.24a4.91,4.91,0,0,1,.24-1.2c1-.92,2.14.1,3.36-.24.13,0,.48-.62.72-.72a3.09,3.09,0,0,1,0-1,8,8,0,0,0-2.64-2.16,5,5,0,0,0,0-1.44c-.29-.48-.76-.15-1.2-.48s-.79-1.71-1-2.4c-.27-.06-.39-.45-.48-.48-3-1-1.88,2.43-1.44,3.6-.42.14-.44,0-.72.24-.93.73-.81.63-2.16.24.18-.3-.51-.33-.24-.48,1.35-.82.79-2.36.72-4.32l.72-.24c1.21-2.13.22-2-1.92-1.92.16,2.4.51,1.72-1.44,2.16-1.25-1.83-1.73-2.16-4.08-2.16a8.79,8.79,0,0,1-.48,1.2c.09.14.68.62.72.72-.13.09,0,1,0,1.2a5.14,5.14,0,0,0-1.44.24,26.41,26.41,0,0,0-1.2-4.56,7.44,7.44,0,0,0,1.68-1.68,3.94,3.94,0,0,1-.24-1.2c-.17,0-1.23-.17-1,0-.73.39-.77.06-1.2.72a7.85,7.85,0,0,0-.48,1.44c-.28-.07-1-.25-1-.24-.14-.2-.29-.6-.48-.72-.26.17-.39-.42-.48-.48,1.78-1,1.84-.69,1.44-2.64-.31-.06-.35-.44-.48-.48-.3-.11-1.13.19-1,.24h-.48c-.35.12-.32,1.06-.72,1.2s-.72-.14-1,0c-.3-1.12-.73-2.76-1.68-3.12-.26-.11-.49.15-.72,0C115,102.48,114.37,102.65,114.15,102.77Zm78.72-32.64s-1.7.4-2.4.48c0,.23-.23.86.24.72a11.2,11.2,0,0,1,.72,1.2c1.35-.21,1.24.45,2.16-1l.48-.24c.05-.2-.15-1-.24-.72C193.42,70.45,193.66,70.16,192.87,70.13Zm11-31.2c-.27.41-.12.64-.24,1.2-1.1-.29-1.56-.2-2.64-.48-1.47,3.14-.94,2.26-4.56,2.4l-1.2.48c-.19,0-.43-.21-.24-.24-.34-.15-.87.14-1.2,0s-.36-1.66-1.68-1.2c0,0-.58.91,0,.72,0,0,.18,1.18.24,1.44-1.1.78-.93.5-1.68,1.68a4.4,4.4,0,0,1-1.44-.48c-.91-.61-.43-1.13-.24-1,.08-.53.7-.51.48-1.44-.06-.23-.84-.53-1-.72s-.13-.58-.24-1c-.09,0-.85-.18-1.2-.24a16.41,16.41,0,0,0,0,3.84,15.22,15.22,0,0,0-2.88.24c-.35.1-1.1,1.15-1.44,1.44a3.45,3.45,0,0,0-1.2,0,9.09,9.09,0,0,1-.24-1.44,4.84,4.84,0,0,0-2.88-.48c-.15,0-.65.69-.72.72h-.48c-1.74,1.69.95,2.08,1.92,2.64.3.17.66.77,1,1a7.06,7.06,0,0,0-1,.72c-1.05-.74-2.22-1.62-4.08-1-.41.13-.8.85-1.2,1s-1-.09-1.44,0c-.25-1-.78-2.84-1.92-2.88-.38,0-.71.37-1.2.48-.06.25-.45.37-.48.48a9.25,9.25,0,0,0-.24,2.16,31.88,31.88,0,0,1-5,1.2c-.35.94-.59,1.58-1,2.4h-.48v-.48c-.41-1.16-1.58-.65-2.4-.48a10.4,10.4,0,0,1-1.44,3.6c-2.05-.68-1.59-.65-3.12,0a6.93,6.93,0,0,1,0,1.44l.72.24s0,.68,0,.72a12.56,12.56,0,0,0-2.88,0c-.09.54-.67.47-.48,1.44,0,0,.76.94.72,1-.69.28-1,1.92-1.2,2.64-2,.5-2.92.44-4.32,1.44.08.54-.19,1.16,0,1.68s1.36.8,1.68,1.2.46,1.6,1,1.92,1.07-.08,1.44,0c0,0,.25.44.48.48,0,0-.43,1.42-.24,1.44a7.55,7.55,0,0,0-3.6.24c.1-1.13.38-2.75-.72-3.12-.27-.1-.71.11-1,0-.06.25-.45.37-.48.48-.39,1.11.52,1.56.24,2.64-.16.57-3.43,3.27-4.08,4.08.28.27.11.45.24,1,.58.15,1.55.6,2.16.72-2.76.68-4.12,1.66-2.88,4.32-.83.59-2.9,2.82-2.64,4.32.05.33.87.72,1,1s-.12.7,0,1A22,22,0,0,0,137,90.05c-.17.42.09,1,0,1.44a4.79,4.79,0,0,1,1,.24c.18.1.1.63.24.72-.38.64-1.5,1.5-1.68,2.16-.28,1,.45,2.8-.48,3.12-.54.17.72,1.44.72,1.44v.24a6.17,6.17,0,0,1,.72,1,3.51,3.51,0,0,0,.72.72c-.51.74-1.74,2-1.2,3.6.05.17.59.45.72.72a11.44,11.44,0,0,1,1.68-.24v2.4a25.14,25.14,0,0,0,.24,2.88c.15.24,1.15.27,1.44.48s.25.81.48,1a13,13,0,0,0,2.16.72,8.77,8.77,0,0,0,0,2.4c.25.7,1.4.64,2.16,1,.24-.36.68-.61,1-1a10.73,10.73,0,0,0,.48-1,8,8,0,0,0,1.2,2.64c.84.65,1.72.39,2.88.24-.11.16,0,.54,0,.72s-1,1-1.2,1.2a7.15,7.15,0,0,1,.48,1.2,17.44,17.44,0,0,1,2.4,0c.37,0,1,.69,1.92.48.21-.06.75-.9,1-1s.69.1,1,0c1.37,1.94.48,2.05,3.36,2.64.8-1.15,1.53-3.6,3.84-3.12.13,0,.7.9,1,1,.89.18,1.39-.52,2.4-.24.23.06.5.82.72,1,.38.23.77,0,1.2.24.24.13.27.81.48,1,.41.29,3.38,1.46,4.32,1.2.41-.13.67-1.08,1.2-1.2,1.28-.33,1.87.54,3.12.24.84-.22,1.38-1.88,1.68-2.64,3.28.44,2.19.07,4.08-1.2.38-.27.84-.22,1.2-.48.21-.17.47-.89.72-1,1-.33,2.11.24,3.12,0,.42-.12.85-.75,1.2-1a11.2,11.2,0,0,1-.24-1.2c-.57-.27-1.19-.72-1.68-1a19.51,19.51,0,0,0,2.4.24c.84-.14,3-1.78,3.12-2.64s-1.11-1.74,0-2.16c.58-.24,1.52.09,2.16,0a18.18,18.18,0,0,0,2.16-1,4,4,0,0,1,0-1.2c-1.64-.78-1.95-.84-3.6.24l-.24.48c-.85.14-.69-.45-1.2-.48.06-.37.24-1.12.24-1.2,1.89.18,2.82.18,3.84-1,1.81-2,.78-2.63-1.44-3.36.12-.27-.12-.45,0-.72s.86-.7,1-1-.12-.71,0-1h.48a7.66,7.66,0,0,1,0,1c.31.16.56.16.72.48,1.28-.43,3.45-1.28,3.6-2.64.21-2.06-2.29-2-3.6-1.92a6,6,0,0,0,.48-3.84,8.32,8.32,0,0,1,1.44-.24c.05-.27.44-.39.48-.48.43-1.28-.06-1.22.72-2.16a8.15,8.15,0,0,1,1.2-1c-.06.21-.47.83-.48,1-.12.79.45,1,.24,1.68-.09.24-1,.78-1.2,1a4.81,4.81,0,0,1,0,1.2c1.17.22,1.05,1.08,2.4-.24.42-.44.24-.8.48-1.44.22.14.7-.11,1,0s.4,1,.48,1.2c1-.46,2.19-.57,2.64-1.44.1-.22.73-3.42.72-3.6,0-.4-.66-.77-.48-1.68,0,0,1.08-1.9,1.2-2.16-.84-.23-1-.53-1.92-.72.12-.08-.14-.65,0-.72a3.82,3.82,0,0,1,1.2-.24,6.82,6.82,0,0,1,0-1.92c.06-.2.78-.58,1-.72-.57-1.19-.71-1.89-1.2-3.12.51-.25,1-.17,1.44-.48.18-.14.49-.88.72-1,.75-.31,1.47,0,2.16-.24.44-.16.74-.73,1.44-.72,1.47,0,1.78,1.53,2.16,2.64a3.73,3.73,0,0,1,1-.48,9.4,9.4,0,0,1,.24-2.88c0-.29-.23-.62-.24-.48v-.72c.82-.65,1.56-1.28,2.4-1.92-.09-.47.12-1,0-1.44l-.48-.48-.24-.48a5.86,5.86,0,0,1-2.4.24c-.12,0-.53-.63-.72-.72a6.9,6.9,0,0,1,1.44-1.92c-.33-1.26-1.17-4.82-1-6,.15-.94,1.63-1.65,1.92-2.4.69-1.9-.6-6.25-1.68-6.72s-2.47.28-3.6-.24c-.36-.17-.24-.87-.48-1.2-.5-.68-1.5-.46-2.16-1S208.8,44.28,208,44c-.26-.1-.51.15-.72,0-.44,2.39-.35,2.29-2.64,2.88a12.49,12.49,0,0,0-.48-1.2c-.19-.26-1.13-.47-1.2-.72-.28-.9.51-1.37.24-2.4-.11-.36-.94-.73-1.2-1,0,0,.21-.45.24-.48a8.22,8.22,0,0,1,1.92,0c.48.16.83,1.28,1.44,1.44,3,.77,2.4-1.47,1.2-2.4a25,25,0,0,0-2.4-1.44ZM55.11,35.81c-.35.34,0,1.21-.24,1.68a2.47,2.47,0,0,1-2.4.72s-.45-1.28-1.2-1.44a5.71,5.71,0,0,0-1.92.24l-.24,1.92-1.2,1.44.72.24a13.71,13.71,0,0,1,1,1.92c-.26-.12-.7.09-1,0-.83-.29-1.72-2.72-2.64-3.12-1.17-.53-3.19-.47-4.56-.72a3.41,3.41,0,0,1-1,.72s0,.68,0,.72c.3.07.38.6,0,.48a3.06,3.06,0,0,1-.24-.48c-.67,0-1.5,0-2.16,0a7.83,7.83,0,0,1-1.68,3.36c-.29-.23-.68,0-1-.24a5.73,5.73,0,0,1-.48-1c1.61-.45-2.71.09-1,.24-.39.11-.67,0-1,.24l-1.44,1.68c-.38.67-.18,1.95-1,2.4a7,7,0,0,1-1.68.24c-1.18,3.09-1,1-2.88,1.92-.31.13-.45,1-.72,1.2s-.7.1-1,.24l-.24.48c-1,.67-2,.44-3.12.48a9.33,9.33,0,0,1-.48,1.44c-.41.64-1.28.53-1.92,1-.83.53-2.78,3.64-3.36,3.84a10.22,10.22,0,0,0-1.44-.24,18.78,18.78,0,0,0-3.12.72A20.42,20.42,0,0,0,11,61.25c-.56-.14.08.27-.48.24L10,61a2,2,0,0,0-1.92,1c-.4.83-.06,1.57,0,2.4a5.34,5.34,0,0,1,1.44,0c-.22,2.74.07,2.78-2.4,2.64a4.9,4.9,0,0,1-.72.72c.28.94.21,1.38.48,2.4-.11,0-1,.18-1.44.24,0,0,.1-1.25-2.4.48.35,2.64-.88,3.56-.48,6.48-.71.4-1.52,1-2.16,1.44.08.42-.09.77,0,1.2.12.6.87,1.39,1,2.16a4.66,4.66,0,0,1-.24,2.16l-.48.24C.36,86,1,87.78,1.11,89.09c.29.09.61,0,.72.24s-.14.7,0,1c-.17.2-.82.48-1,.72-.78,1.26,0,2.39-.24,3.84l-.48.24v.48a3.32,3.32,0,0,0,0,1.92c.06.15.58.34.72.48v.48c2.48.17,2.5.19,3.84-1.44.18.06.69.25.72.24-.11.33-.45.79-.48,1a5.08,5.08,0,0,0,.24,1.44c.1.07.67.34.72.48a9.47,9.47,0,0,1,0,1.92c-2.2-1-3.63-.81-2.64,1.92.12.34,0,.55.24.72.43.27,1.1,0,1.68.24.15.06.56.93.72,1,1.54.28,2.17-1.29,2.64-2.16.27.13.66.46,1,.48-.83,1.66-.5,1.41,0,2.88a3.46,3.46,0,0,0,0,.72c-.13-.36-.26.62-.24.72.31,1.42,2.28,1.29,3.6,1.2-.08.12,0,.57,0,.72-.26.64-1.83,1.33-2.4,1.68.14.4-.15.78,0,1.2a6.34,6.34,0,0,0,1.68,1.44,6.28,6.28,0,0,0,3.36-.72c.22-.13.62-.91,1-1,.76-.13,1,.3,1.68.48,0,0,0,.68,0,.72-3,.33-3.78,1.07-2.16,3.36,1.28-.33,1.59-.16,2.88-.48.1.78.31,2.34,1,2.64.43.19,1.18-.07,1.68,0,2.55.34,2.61,1.44,4.32-1a5.93,5.93,0,0,0,2.88,0l.48-.48c.8-.12,1.63.43,2.16.48s.92-.24,1.44-.24c.15-.61.27-1.14.48-1.92a9.53,9.53,0,0,0-1.2-.72v-.48a24.38,24.38,0,0,1,2.4-1.2,4.25,4.25,0,0,1,2.88,0l.48.48c1.24.18,1.85-.6,2.64-.72.54-.1,1.42.21,1.92,0,.73-.33.69-1.82,1.2-2.4s1.74-.93,2.4-1.44c-.23-.59.72,0,.72,0,.34,2.18,0,1.81,2.16,2.16.36-.69,1-2.14,1.92-2.16.42,0,.13.33.72.24.12.33-.13.85,0,1.2,0,.12.6.47.72.72.26-.11.68.06,1,0,.75-.21,1.15-2,1.44-2.64,2.68-.12,2.13.13,3.12-1.68a11.65,11.65,0,0,0,2.64,0c0-.27.44-.39.48-.48.18-.53-.18-1.16,0-1.68s1.15-.83,1.44-1.2.35-1.12.72-1.44c.7-.64,1.81-.67,2.16-1.68.18-.53-.11-1.13,0-1.68,0-.29.69-1.16.72-1.44.18-1.83-.88-2-1.92-2.64-.32.42-.64.78-1,1.2.6.11-.72.48-.72.48.22-1.3-.19-1.26,1.2-2.16.55-.37.91-.33,1.44-.72.16-.13.29-.64.48-.72.82-.4,1.81,0,2.64-.48.38-.22.18-1,.48-1.2-.38-.69-.09-.8-.72-1.2a6.67,6.67,0,0,0-1.2-.48c.25-.18.43-.85.72-1,.69-.28,1.39.07,1.92-.24s.16-.75.48-1.2c.2-.3,1-.45,1.2-.72a11.13,11.13,0,0,0,1-3.6c-.08-.38-.83-.69-1-1-.26-.56,0-.95-.24-1.68.31,0,.35-.45.48-.48.51-.14.69.41,1,.48,1.45.33,1.76-.53,2.4-1a22.72,22.72,0,0,1-.24-3.12c-1.14-.58-1.61-.22-1.68-1.92s.82-1.55,1-2.16a3.71,3.71,0,0,0-.24-1.44c-.18-2.12.58-2.33,0-4.32a4,4,0,0,1,1.2,0c.72-1.54.63-.91.24-2.64-.32-.1-.76-.06-1-.24a17.47,17.47,0,0,1-1.44-1.92c1-.83,1.77-1.64,2.88-2.4-.13-.42.12-.79,0-1.2,0-.14-.67-.71-.72-1a26.12,26.12,0,0,1-.24-2.64c.27,0,1.3.18,1.92.24a7.4,7.4,0,0,0,.24-1.44c0-.12-1.15-3.07-1.2-3.12-.24-.23-1-.32-1.2-.48.35-1.11,1.17-3.11-.24-3.6-.41-.15-.8.14-1.2,0a9.35,9.35,0,0,1-.48,1.2c-1.2,2.09-.21.13-1.2.48a6.93,6.93,0,0,0,0-1.44c.07-.05.46-.2.48-.24.1-.35.24-.3.48-.48a10.48,10.48,0,0,1-.48-1.44,6.9,6.9,0,0,1-2.4.72s-.6-.69-.72-.72c-.28-.08-.7.1-1,0-.19.18-.75,1.12-1,1.2s-.72-.14-1,0C66.27,46.13,65,43,65,43a7,7,0,0,0,2.16-1.2,6.3,6.3,0,0,1,0-1.44,6.93,6.93,0,0,0-2.64-.24c-.31-.63-.23-.56-.72-1a9.16,9.16,0,0,1-1.92,1.2c-.28,2.44-.13,2.41,1.92,2.4A9.83,9.83,0,0,0,63,45.41a7.43,7.43,0,0,0-2.4-2.16h-.24c-.41-.83-.11-2-.24-2.88.51-.1.45,0,.72-.24s1.17-.58,1.44-1c.11-.17.19-1,0-.72-.08,0-.35-.89-.48-1-1.14-.59-2.87.23-3.84,0-.68-.17-1-1.7-1.68-1.92h-.48C55.69,35.79,55.27,35.64,55.11,35.81ZM126.63,5.57c-.24.67.16,1.2.24,1.68-.26,0-.38.44-.48.48-.87.29-2-.23-2.88,0-.48.11-1.16,1.09-1.68,1.2-1.11.22-1.7-.51-2.64.24-.45.34-1.43,3.4-1.68,4.08-.26-.14-.45.1-.72,0s-.62-.83-1-1c-2.2-.89-2.12.91-3.12,1.68-.37.27-1,.27-1.44.48l-.24-1c.28-.26,1.09-.56,1.2-1s-.11-.71,0-1c-.21-.17-.43-.14-.48-.48a6.93,6.93,0,0,1-1.44,0c-.24.33-.87.81-1,1.2,0,.16.1.55,0,.72s-1.12.45-1.2.72c-.36,1.09.24,1.91.48,2.64h-.48a2.66,2.66,0,0,0-1,1.92c0,.19.64.58.72.72s.11.85.24,1,.55,0,.72.24a13.92,13.92,0,0,0-.72,2.4c-.13-.08-.59,0-.72,0-.63-1.34-.79-.84-.48-2.88-.24-.11-.75-.67-1-.72-.72-.2-1.7.2-2.4,0-.24-.08-.38-.87-.72-1s-1.16.19-1,.24A18.58,18.58,0,0,0,101,20c0,.07-.46.17-.48.24-.16.39,0,1.16-.24,1.44-.44.4-1.22.1-1.68.48s-1,3.74-.48,4.08c.74.48,1.18,0,1.68-.24s.17-.47.24-1l.72.24a9.3,9.3,0,0,0-.24,1.68c-.26.05-.38.44-.48.48-.73.25-1.89-.19-2.64,0l-.24.48c-.39.25-.74,0-1.2.24A30.78,30.78,0,0,1,96.63,25c-.45-.19-.12,0-.24-.48-1.16-.09-2.17-.47-2.88.48-.94,1.22-.59,2.46,0,3.6-.48.58-1.31,1.25-1.44,2.16,0,.28.14.94,0,1.2a9.79,9.79,0,0,1-1.2.24,12.51,12.51,0,0,1-.24,1.68,6.11,6.11,0,0,1,1,.24c.26.22.23,1,.48,1.2-.53,0-3.21.23-3.84.72s.31,2.89,0,3.84c-.17.5-.94,1-1.2,1.44a40.15,40.15,0,0,1-3.12,4.56c-.21.25-.84.48-1,1-.75,2.95.72,1.88,1.44,2.16.16.06.94.77,1.2,1-.44.94-1.53,2.42-.72,3.84.14.25.81.4,1,.72s-.34.17-.24.72c.23,1.41,1.81,1.44,3.12,1.44-.14.05-.92.7-1,.72-2.32.68-2-.33-2.88,1.92-1.07-1.42-1.88-1.76-4.08-2.16-.18.37-.44.46-.72.72a27.51,27.51,0,0,0,1,2.64,6.46,6.46,0,0,0-1.44,1c-.27.33-.19.92-.48,1.2s-.67.05-1,.24a6,6,0,0,0-1,1.2c.1.16,0,.76,0,1a5.29,5.29,0,0,0,2.88.24c-.14.26.1.43,0,.72l-.48.24c-.52.79-.27,1.26-.48,2.4a5.38,5.38,0,0,1,1,.48c.67.93,1,1.72,1.68,2.64-.47.31-1.76.87-1.92,1.44-.13.41.12.78,0,1.2a12.8,12.8,0,0,1,2.4.72c.14.07.5.66.72.72.42.1.77-.11,1.2,0-.14.54-.27,1.08-.48,1.92-.6,0-.68-.47-1.44-.24-.14,0-.5.61-.72.72.91,1.7-.11,1.24,2.4,1.44.23.64.49,1.37.72,1.92h.24c.19,1-.32,1.36-.24,2.4.06.86.82,2.59,1,3.36.1.55-.19,1.15,0,1.68,0,.09.42.22.48.48,2-.71.6.41,1.92-1.2.26.12.43-.12.72,0,.07,0,.56.68.72.72,1,.23,1.18-.45,2.16,0s-.11,1.19-.24,1.68c-.08.27.1.69,0,1,1.77,1.26,2.42,2,5,1.92a5.1,5.1,0,0,1,.48-1.2c.18-.26.78-.27,1-.48v2.64c.06.29,1.39,1.92,1.68,2.4.64-.06,1.26,0,1.92,0,.07-.16.34-.93.48-1,2.16-.49,2.74,1.86,3.84,2.16.68.18,1.07-.14,1.68-.24.23.28.35,1.07.72,1.2s.71-.14,1,0c0-.26.44-.38.48-.48.13-.42-.12-.79,0-1.2a11.26,11.26,0,0,1-1.68-.24c-.42-.19-.6-1.32-1-1.44h-.48c-.13-.27.13-.72,0-1,.16-.27.58-.67.72-1,.31.28,1,.33,1.2.72.12.22-.08.7,0,1s.75.66,1,1c.46-.09,1,.1,1.44,0,.82-.2,1-1.16,2.16-1.2,1.3-.06,2.52,1.19,4.32.72,1.22-.33.92-1.91,1.68-2.4s2-.15,3.12-.48c.26-.09.67-.59,1-.72a3.09,3.09,0,0,1,0-1c.13-.27.55-.17.72-.48,1.12.36,2.55,1.15,3.84.48.31-.17.46-1,.72-1.2s.69-.11,1-.24.72-.84,1-1a12.16,12.16,0,0,1,1.68-.48,6.32,6.32,0,0,0,.24-1.44c-.09-.37-.89-.69-1-1-.19-.71.31-.61.24-1.2a3.41,3.41,0,0,0,.72-1,5.13,5.13,0,0,0,2.88,0c.52-.26.37-.8.72-1.2a11.77,11.77,0,0,1,2.16-1.44,8,8,0,0,1-.24-2.16c.09-.54,1-1,1.2-1.44s.22-.9.48-1.44a4.74,4.74,0,0,1-.72-.48c-.11-.28.13-.47,0-.72,1.91-1.36,2.27-2.09,0-3.36,1.42-.74,2.66-1.5,4.08-2.16a4,4,0,0,1,0-1.2c-.29-.14-.7-.64-1-.72-1-.3-1.55,0-2.16-.48-.26-.22-.14-.8-.24-1.2-.53.19-.37-.67-.48-1,0,0,1.34.09,1,.24,1.54-.18,4.24-.37,2.88-2.4-.13-.19-.9-.29-1-.48-.15-.47.42-1.16.24-1.92s-1.05-.73-1.2-1c-.5-.75-.71-1,.24-1.44-.12-1.64-.2-1.58.72-2.4a3.46,3.46,0,0,1,.72,0,5.59,5.59,0,0,1,.24-1.68l1.44-.72a4.83,4.83,0,0,1-.48-2.64c.06-.2.68-.78.72-1,.09-.56-.33-.35-.24-.72l-1,.24c-.6,2-.38,2.71-1.68,1-.64.07-.56.31-1,.48,0,0,0-1.51,0-1.92,1.92-.44,1.2-.11,2.16-1.44.21.15.46-.1.72,0s.3.83.48,1c1.11.79,2.6.25,3.6,0-.12-.47.13-1,0-1.44-.09-.28-.88-.84-1-1.2s-.14-1.32.24-1.2V44c0-.15-.69-.65-.72-.72s.06-.59,0-.72c1.77-.78,2-.92,2.88-2.64l.48-.48c.07-.53-.42-.92-.24-1.68.09-.42.88-.94,1-1.44s-.41-1.12-.24-1.92c.09-.48,1.09-1.29,1.2-1.68s-.09-1.15,0-1.68c-1.58-.92-1.5-.53-1.68-2.88.39-.25.14-.21.24-.72h.48c0,.48-.05,1.21,0,1.92,0,0,1.33,0,1-.24a5.12,5.12,0,0,1,.72-1.44,5.77,5.77,0,0,0,0-.72c-.1-.39-.71-.86-1-1.2.19-.32.55-.68.72-1s.66-1,.72-1.2c.25-1.14-.47-2.09-.48-2.64,0-1,.58-1.46.48-2.64l-.48-.72c-.55-2.66-.12-2.24-2.64-2.88-.11.48-.37,1.37-.48,1.92-.47.12-.3-.21-.48.24-.84,0-1.91-.2-2.4-.24a9.69,9.69,0,0,0-.48-4.08c-.7-.16-1.89-.82-2.88-.48-.18,0-.47.59-.72.72a11.77,11.77,0,0,1,0,1.68h-.48c-.24-.5,0-.77-.24-1.2-.34-.59-1.55-1.11-1.68-1.92-.23-1.36.66-1.4.48-2.64a14.07,14.07,0,0,0-2.4-3.12c-1.33-.29-1.52.61-2.16,1s-1.69.62-2.4,1c.39,1.57,1.31,4.51-1.68,3.84-1.06-.24-.77-1-1.2-1.92-.08-.16-.69-.32-.72-.48-.22-1.1.58-2.06,0-3.12-.35-.62-1.21-.43-1.92-.72C127.29,5.22,126.67,5.43,126.63,5.57Z"/><path class="a" d="M153.14,220a4.45,4.45,0,1,1-4.52,4.44A4.44,4.44,0,0,1,153.14,220Zm0,.72a3.73,3.73,0,1,0,3.64,3.72A3.62,3.62,0,0,0,153.14,220.71ZM152.2,227h-.8v-5.13h2c1.22,0,1.82.46,1.82,1.46a1.34,1.34,0,0,1-1.34,1.42l1.46,2.25h-.86l-1.37-2.23h-.88Zm0-2.87h.93c1,0,1.27-.28,1.27-.84s-.24-.77-1.14-.77H152.2Z"/></svg>