<svg width="189" height="181" viewBox="0 0 189 181" fill="none" xmlns="http://www.w3.org/2000/svg">
<g clip-path="url(#clip0)">
<g clip-path="url(#clip1)">
<path d="M14.7275 148.179C14.7591 148.282 15.2572 148.448 15.2967 148.558C15.3995 148.898 15.2888 149.033 15.107 149.128C15.107 149.128 15.4232 150.045 15.4864 150.266C15.2097 150.068 15.0675 150.179 14.7275 150.076C14.6801 149.823 14.3718 149.649 14.3481 149.507C14.2453 148.97 14.6643 148.511 14.7275 148.179ZM13.02 148.179C13.2887 148.258 14.0635 149.246 13.02 148.938C12.7591 148.859 12.4903 148.021 13.02 148.179ZM109.023 147.041C109.031 147.104 108.881 147.697 108.833 147.989C110.122 149.001 112.162 150.282 110.921 147.23C110.114 147.12 109.743 147.143 109.023 147.041ZM113.956 145.902C113.213 146.606 112.699 147.349 112.059 148.179C112.059 148.171 112.438 147.8 112.438 147.8C113.11 147.57 113.624 147.46 114.715 147.42C114.612 146.811 114.597 146.606 114.525 145.902C114.494 145.902 113.956 145.91 113.956 145.902ZM110.731 141.538C110.81 141.863 110.731 142.329 110.731 142.677C112.604 143.151 111.917 143.641 112.438 141.728C112.264 141.594 112.122 141.602 112.059 141.349C111.743 141.254 111.545 141.317 111.3 141.159C111.26 141.262 110.841 141.451 110.731 141.538ZM112.628 126.74C112.683 126.819 112.628 127.214 112.628 127.309C112.826 127.404 113.205 127.838 113.387 127.878C115.419 128.336 114.589 126.423 114.336 125.791C114.17 125.791 113.719 125.862 113.577 125.791C113.34 126.091 112.857 126.423 112.628 126.74ZM108.454 110.992C108.77 111.68 108.762 112.786 110.162 112.32C110.296 112.273 110.525 111.846 110.731 111.751C110.731 111.482 110.644 111.047 110.731 110.802C110.549 110.668 110.106 110.099 109.972 110.043C109.766 109.964 109.585 110.162 109.403 110.043C109.142 110.359 108.723 110.66 108.454 110.992ZM134.826 102.075C135.404 103.134 135.957 103.814 136.155 105.3C136.344 105.332 136.629 105.664 136.724 105.679C137.783 105.877 138.463 105.11 139.001 106.438C139.325 107.229 138.953 108.684 139.949 108.146C140.234 107.988 140.273 106.431 140.329 106.059C139.016 105.719 138.107 105.15 137.293 104.351C137.34 104.209 137.491 103.798 137.483 103.782C137.317 103.553 135.206 102.304 134.826 102.075ZM98.0189 98.8492V99.2287C98.0031 99.1417 97.7738 99.9085 97.8292 100.177C97.8924 100.486 98.3904 101.126 98.5881 101.505H98.9675C99.0703 101.592 99.2126 102.027 99.347 102.075C99.5525 102.146 99.9083 101.98 100.106 102.075C100.153 101.964 100.675 101.316 100.675 101.316C100.738 100.857 100.335 100.92 100.296 100.747C100.169 100.288 100.517 100.011 100.485 99.7979C100.414 99.4342 98.9122 98.4302 98.0189 98.8492ZM169.357 94.6752C169.255 94.8728 168.828 95.1021 168.788 95.2444C168.63 95.7108 168.654 96.3985 168.598 96.7622C167.942 96.9835 167.302 97.2681 166.701 97.5211C167.183 98.2958 167.413 98.9757 168.219 99.4184C171.65 101.268 169.942 96.5013 169.737 94.6752H169.357ZM105.229 92.5881C105.173 92.7383 104.778 93.0546 104.659 93.1573C105.086 94.0269 105.26 95.1337 106.557 94.6752C106.92 94.5408 106.881 94.1139 107.126 93.9163C106.936 93.7898 106.762 93.9953 106.557 93.9163C106.098 93.7423 106.043 92.7383 105.608 92.5881H105.229ZM107.316 90.1217C107.221 90.3667 106.976 90.3825 106.746 90.5011C106.905 90.928 106.857 91.26 106.936 91.6395C107.252 91.6711 107.118 91.8608 107.316 92.019C107.403 91.932 107.948 92.019 108.075 92.019C107.972 91.2442 107.988 90.8173 107.885 90.1217C107.853 90.1217 107.316 90.1296 107.316 90.1217ZM169.926 86.7065C169.919 86.7144 170.061 87.252 170.116 87.4654C169.911 87.505 169.816 87.8133 169.737 87.8449C169.247 88.0109 168.583 87.9714 168.219 88.0346C168.077 89.7975 167.571 90.6039 167.65 92.019C166.891 90.6039 166.361 90.7146 165.183 91.6395C165.001 91.4102 164.867 90.8252 164.614 90.6908C164.005 90.343 161.294 90.5248 160.25 90.3114C160.203 90.509 159.895 90.6118 159.871 90.6908C159.626 91.3865 159.871 92.604 159.871 93.3471C159.839 93.3629 159.491 93.5368 159.491 93.5368C159.357 93.2522 159.136 93.1573 158.922 92.9676C159.412 91.3391 158.978 89.173 157.025 90.5011C156.78 90.6592 156.851 91.2521 156.645 91.4498C156.456 91.6237 155.894 91.7423 155.697 91.8292C155.831 92.3589 155.641 92.7146 155.886 93.1573C156.258 93.8293 157.894 93.7265 158.163 94.4854C158.274 94.8017 158.045 95.11 158.163 95.4341C158.1 95.4341 157.641 95.3946 157.594 95.4341C157.001 94.8965 156.788 94.5487 156.456 93.7265C155.815 93.6396 154.756 93.7581 153.989 93.5368C153.926 93.5131 153.531 92.9834 153.42 92.9676C152.701 92.849 152.456 93.4103 151.712 93.1573C151.633 93.1257 151.531 92.8095 151.333 92.7779C152.329 92.2087 152.242 92.3035 152.092 90.8806L151.523 90.6908C151.365 90.9201 151.088 90.8727 150.954 91.0703C150.843 91.2284 150.898 91.9083 150.764 92.019C150.313 92.3747 149.641 91.9399 149.246 92.5881C149.08 92.849 148.748 94.3827 148.677 94.6752C145.009 93.5921 146.368 96.3669 144.123 96.3827C144.123 96.3827 143.649 96.2088 143.554 96.193V95.8135C143.815 95.7266 144.234 95.8135 144.503 95.8135C144.416 95.7503 144.661 95.4815 144.692 95.4341C144.503 95.276 144.4 95.3313 144.313 95.0546C143.546 94.9123 142.4 94.5724 141.846 94.6752C141.491 94.7384 141.001 95.442 140.708 95.6238C139.997 96.0349 139.23 96.0033 138.431 96.3827C138.289 96.446 138.044 96.9124 137.862 96.9519C137.222 97.0705 137.072 96.5804 136.534 96.7622C136.471 96.778 136.202 97.2602 136.155 97.3314C135.475 98.201 135.633 98.6121 136.155 99.6081C135.72 99.7188 135.293 99.8137 134.637 99.9876C134.724 99.7821 134.558 99.4342 134.637 99.2287C134.653 99.1654 135.135 98.8967 135.206 98.8492C135.087 98.5251 135.317 98.2247 135.206 97.9006C135.166 97.7899 134.716 97.5132 134.637 97.3314C134.249 97.4895 133.822 97.4579 133.498 97.5211C133.411 98.28 133.198 99.6002 133.119 100.367C132.534 100.367 132.581 100.288 131.981 100.367C132.075 100.636 131.878 101.039 131.981 101.316C132.083 101.616 133.008 101.901 133.309 102.075C133.301 102.106 133.23 103.134 133.119 102.834C133 103.031 133.198 103.181 133.119 103.403C133.079 103.506 132.652 103.798 132.55 103.972H132.17C131.886 103.363 131.759 102.921 131.411 102.454C130.558 101.324 130.708 101.996 129.324 101.505C129.261 101.482 129 100.952 128.945 100.936C128.621 100.818 128.32 101.047 127.996 100.936C127.893 101.142 127.467 101.363 127.427 101.505C127.245 102.051 127.467 102.604 127.237 103.023C126.858 103.679 125.949 103.419 125.34 103.782C124.597 104.209 124.217 105.877 124.012 106.818C122.502 106.106 123.427 106.106 121.925 106.818C121.988 107.142 121.83 107.253 121.735 107.577C122.526 108.138 122.541 108.193 123.443 108.336C123.379 108.359 123.403 109.031 123.253 109.095C123.032 109.189 122.557 109.095 122.304 109.095C122.202 109.308 121.775 109.656 121.735 109.854C121.561 110.62 122.075 111.403 122.115 111.941C122.138 112.32 121.909 112.502 121.925 112.699H121.545C121.15 112.565 120.794 111.482 120.407 111.371C119.798 111.197 119.735 111.577 119.269 111.561C118.778 113.198 118.652 113.063 119.838 114.028C119.45 114.368 119.925 116.502 120.028 117.253C119.743 116.976 119.371 116.771 119.079 116.494C119.474 116.494 118.043 116.336 118.51 116.494C118.288 116.676 117.964 116.494 117.751 116.684V117.063C117.158 118.771 118.28 118.976 118.889 120.478C118.826 120.542 118.921 120.969 118.889 121.048C118.794 121.277 117.877 121.546 117.751 121.807C117.656 121.98 117.782 122.368 117.751 122.565C117.711 122.747 117.19 123.451 117.182 123.514C117.087 123.878 117.261 124.281 117.182 124.652C117.522 124.953 118.257 125.419 118.51 125.791C118.715 126.099 118.644 126.487 118.889 126.74C119.158 127.008 119.609 126.992 119.838 127.309C120.399 128.076 120.889 130.044 121.166 131.103C121.443 131.167 121.838 131.119 122.115 131.293C122.028 131.364 121.98 131.783 121.925 131.862C121.751 132.115 121.111 132.186 120.976 132.431C120.636 133.016 121.039 134.503 120.976 135.467C121.324 135.609 121.063 135.483 121.166 135.847C121.933 135.87 122.344 135.973 123.253 135.847C123.174 136.052 123.308 136.384 123.253 136.605C123.087 137.206 121.98 137.641 122.684 138.692C122.787 138.843 123.387 138.89 123.443 139.072C123.711 139.981 122.802 140.479 123.632 140.969C123.862 141.096 124.684 141.293 124.961 141.349C124.881 142.021 124.565 142.922 124.961 143.625C125.024 143.744 125.498 143.878 125.53 144.005C125.648 144.448 125.356 145.096 125.53 145.523C125.569 145.633 125.806 145.618 125.909 145.712C126.415 146.163 126.913 146.092 127.427 146.471C127.609 146.606 127.482 146.819 127.617 147.041C128.36 148.242 129.364 147.57 130.273 147.041C130.17 148.361 130.123 148.859 129.894 150.076C130.028 150.108 131.032 150.353 130.842 150.266C131.364 149.926 131.973 150.045 132.17 149.317C132.218 149.12 132.067 148.732 132.17 148.558C132.265 148.385 132.858 148.487 132.929 148.369C133 148.519 132.89 148.78 132.929 148.938C132.961 149.056 133.483 149.452 133.498 149.507C133.562 149.807 133.245 150.606 133.309 150.645C133.19 150.677 132.953 150.97 132.929 151.025C132.961 151.057 132.929 151.539 132.929 151.594C133.862 152.005 134.123 152.132 135.585 151.974C135.585 152.084 135.506 152.875 135.585 152.922C135.435 153.151 135.048 153.302 134.826 153.491C134.89 153.665 134.826 154.061 134.826 154.25C135.095 154.353 135.072 154.567 135.206 154.82C136.242 154.622 136.313 154.646 136.914 154.25C137.087 154.132 137.736 153.855 137.862 153.681C138.194 153.191 137.941 152.638 138.431 152.353C138.669 152.211 139.103 152.424 139.38 152.353L139.759 151.974C140.748 151.744 140.384 152.053 141.088 152.163C140.985 152.472 141.088 152.97 141.088 153.302C140.566 153.491 140.005 153.689 139.57 153.871C139.601 154.187 139.759 155.199 139.759 155.199C140.06 155.239 140.36 155.499 140.898 155.389C141.159 155.333 141.594 154.788 141.846 154.63C143.024 153.879 143.704 154.329 145.072 153.871C145.151 153.839 145.246 153.531 145.451 153.491C145.364 153.072 145.625 152.535 145.451 152.163C145.388 152.163 145.325 152.163 145.262 152.163C144.914 152.163 144.566 151.728 144.313 151.594C144.313 151.246 144.392 150.796 144.313 150.456C144.487 150.306 144.582 149.887 144.882 149.887C144.945 149.887 145.009 149.887 145.072 149.887C145.428 150.226 145.878 151.072 146.4 151.215C146.613 151.27 146.945 151.136 147.159 151.215C146.93 151.91 147.001 152.179 146.779 152.922C147.459 153.223 148.598 153.855 149.625 153.302C150.542 152.796 149.902 152.061 149.815 151.594C149.728 151.104 150.029 150.891 150.005 150.645C151.27 150.566 152.345 150.377 153.61 149.887C153.673 149.855 153.744 149.523 153.799 149.507H154.179C154.456 149.041 154.155 148.416 154.369 147.8C154.503 147.388 155.143 147.175 155.317 146.851C155.515 146.463 155.341 146.266 155.507 145.902C156.329 145.934 158.06 146.013 158.922 145.523C159.31 145.301 159.507 144.645 159.871 144.384C160.037 144.25 160.234 144.456 160.44 144.384C161.673 143.902 160.835 142.669 160.44 142.108C161.096 141.926 162.329 141.744 162.527 141.159C162.63 140.851 162.377 140.289 162.527 140.021C162.59 140.021 162.654 140.021 162.717 140.021C163.476 139.633 164.013 138.874 164.614 138.313C164.812 138.4 165.16 138.234 165.373 138.313C165.839 138.471 165.934 139.451 167.081 139.072C167.215 139.025 167.444 138.598 167.65 138.503C167.476 138.21 167.642 137.807 167.46 137.554C167.373 137.436 166.409 137.024 166.322 136.795C166.243 136.59 166.44 136.408 166.322 136.226C168.108 135.76 168.44 135.839 168.219 133.76C168.859 133.356 169.484 133.254 170.116 132.811C170.314 132.669 170.274 132.392 170.496 132.242C170.361 131.356 170.132 130.17 170.875 129.775C172.266 129.032 172.693 130.218 173.342 130.344C174.132 130.495 174.227 130.044 174.67 129.965C174.622 129.506 174.899 129.657 174.859 129.206C174.844 129.024 174.44 128.597 174.48 128.257C174.488 128.17 175.033 127.728 175.049 127.688C175.136 127.459 174.939 127.325 175.049 127.119C174.749 126.977 174.235 126.724 173.911 126.55C174.464 125.356 174.393 124.945 173.911 123.704C174.527 124.044 175.136 124.376 175.808 124.652C175.761 124.66 176.765 124.668 176.946 124.652C177.089 124.328 177.666 122.534 177.895 122.376C178.385 122.028 179.089 122.305 179.603 121.996C180.006 121.743 179.761 120.921 179.603 121.048C179.682 120.739 179.5 120.391 179.603 120.099C179.626 120.02 179.943 119.917 179.982 119.72C181.476 119.83 181.698 119.72 182.638 119.34C182.789 117.972 182.796 117.411 181.879 116.684C181.785 116.613 181.35 116.415 181.31 116.304C181.168 115.893 181.374 115.411 181.31 114.976C181.611 114.889 181.619 115.134 181.69 114.787C182.006 114.921 182.314 114.644 182.638 114.787C182.883 114.889 182.796 115.585 183.018 115.735C184.133 116.494 185.548 115.972 185.864 114.976C186.093 114.241 185.761 114.257 185.674 113.648H185.295L185.484 112.13C184.804 112.178 184.702 112.162 184.346 112.13C184.227 111.806 184.457 111.506 184.346 111.182C184.299 111.055 183.848 110.913 183.777 110.802C183.579 110.478 183.753 110.217 183.587 109.854C183.793 109.743 183.927 109.34 184.156 109.284C184.283 109.253 184.599 109.371 184.725 109.284C185.073 109.031 185.279 108.091 185.674 107.956C186.101 107.798 186.923 107.972 187.382 107.956C187.682 106.929 188.022 106.114 188.33 105.3C188.188 105.205 188.125 104.644 187.951 104.541C187.579 104.328 187.097 104.343 186.812 104.162C185.706 103.45 188.061 102.889 188.52 102.454C188.702 102.28 188.52 101.877 188.71 101.695C188.504 101.648 186.133 101.173 186.054 101.126C185.951 101.063 185.405 99.6398 185.295 99.4184C186.243 99.1101 186.362 98.9046 187.002 98.4698C186.725 98.2168 186.741 97.7504 186.433 97.5211C186.164 97.3235 185.998 97.4263 185.674 97.3314C185.682 97.2998 185.532 96.6357 185.484 96.3827C186.077 96.106 186.504 95.9084 187.002 95.6238C186.899 95.3471 187.097 94.944 187.002 94.6752C186.955 94.5487 186.504 94.4064 186.433 94.2957C186.18 93.8846 186.014 93.1573 185.864 92.7779C185.761 93.0941 185.674 92.2087 185.674 92.2087C186.488 91.7344 185.895 90.6197 184.915 90.6908L184.536 91.0703C184.172 91.2521 183.911 91.3075 183.587 91.4498C183.579 91.4814 183.563 92.683 183.587 92.5881C183.698 92.8253 184.069 92.9755 184.156 93.1573C184.346 93.5605 184.227 93.94 184.346 94.2957C183.927 93.9321 183.595 93.7265 183.208 93.3471C182.883 93.4577 182.583 93.2285 182.259 93.3471C182.022 93.4261 181.729 94.2087 181.5 94.2957C181.176 94.4064 180.875 94.1771 180.551 94.2957C180.528 94.2562 180.362 93.9163 180.362 93.9163C180.267 94.2088 180.172 93.1969 180.172 93.1573C180.211 93.1178 180.725 92.8174 180.741 92.7779C180.875 92.2956 180.512 92.0506 180.551 91.8292H180.172C179.919 91.9162 179.674 92.7858 179.413 92.9676C179.286 93.0467 178.978 92.9281 178.844 92.9676C178.709 92.9992 178.219 93.4894 178.085 93.5368C176.946 93.9004 175.911 93.9163 174.48 93.9163C174.14 94.6198 174.164 94.5961 173.911 95.6238C173.879 95.6238 173.342 95.608 173.342 95.6238C173.302 95.1653 173.152 94.2641 173.152 93.5368C173.579 93.3866 173.737 93.4498 174.29 93.3471C174.227 92.4933 174.227 91.4735 173.911 90.5011C174.804 90.6671 174.899 90.7857 175.808 90.5011L175.998 90.1217C176.322 89.9873 176.978 90.1217 177.326 90.1217C177.294 89.9398 177.587 89.7501 177.516 89.3627C177.365 88.5643 176.275 87.8449 175.808 87.2757C175.61 87.5524 175.816 87.75 175.618 88.0346C175.468 88.2402 175.255 88.0662 175.049 88.2244C174.82 88.3904 174.654 88.9437 174.48 89.173C174.44 89.1177 173.966 89.0386 173.911 88.9833C173.745 88.8252 173.792 88.4773 173.721 88.2244C173.516 88.1848 173.421 87.8686 173.342 87.8449C172.638 87.5998 172.251 88.0979 171.824 88.2244L171.634 88.0346C171.697 86.8883 171.571 86.746 171.444 85.9476C171.294 85.9476 170.812 86.0267 170.685 85.9476C170.527 86.1927 170.021 86.3903 169.926 86.7065ZM90.24 77.22C90.2479 77.3228 90.24 79.6865 90.24 79.6865C90.1451 79.8288 89.7577 79.9158 89.6708 80.066C89.5917 80.1925 89.5838 80.9277 89.4811 81.0146C89.1965 81.2439 89.0067 81.1174 88.5324 81.2044C88.7696 81.3308 88.0818 81.4257 87.9632 81.3941C87.8763 81.3625 87.7814 81.0779 87.5838 81.0146C87.7182 80.0185 87.9632 78.9118 87.0146 78.5481C86.6351 78.3979 86.5719 78.8169 86.0659 78.7379C85.9078 78.7062 85.4572 78.2003 85.307 78.1687C83.805 77.8446 83.1646 78.8406 82.4611 79.3071C82.2713 79.1806 82.0974 79.3861 81.8919 79.3071C81.5994 79.1964 81.4017 78.4849 81.1329 78.3584C80.461 78.0343 78.785 78.1766 78.0973 78.5481C77.1881 79.0383 77.6704 81.07 77.1486 81.9633C77.0696 82.0977 75.8363 83.0858 75.6308 83.2914C75.4094 83.0858 74.6979 82.2162 74.4924 82.153C72.5081 81.5838 71.2986 84.9752 70.3183 81.3941C70.2156 81.3783 69.5911 81.1016 69.18 81.2044L68.9902 81.5838C68.3657 81.987 67.836 82.8092 68.8005 83.2914C68.9586 83.3704 68.5317 83.4969 68.6108 83.6708C68.1997 83.7815 67.6938 84.1294 67.2827 84.0503C66.8004 83.9475 66.8558 83.1175 65.7648 83.2914C65.496 83.3309 64.1758 84.5879 64.0573 84.6195C63.6383 84.7064 62.7529 84.493 62.16 84.4298L61.9702 84.9989C60.4682 85.3942 62.0967 84.2242 62.3497 84.0503C62.2944 83.7578 62.1521 83.1649 62.16 83.1017C61.3931 82.9831 61.1718 83.0226 60.4524 82.9119C60.3971 83.157 60.2231 83.1649 60.0729 83.2914C60.2706 84.0661 60.2627 84.3902 60.4524 84.9989C59.9702 85.2203 59.3298 85.1175 59.1243 85.5681C58.9425 85.9397 58.9662 86.999 58.9346 87.2757C58.5472 87.1571 58.5551 87.5761 58.1756 87.4654C57.9227 87.3864 57.7804 86.6275 57.4167 86.5168C56.4285 86.2164 55.5273 86.4535 54.5708 86.3271C54.4206 88.2323 53.5352 89.4655 52.6735 90.6908C52.5865 90.6276 52.1912 90.6908 52.1043 90.6908C51.709 89.845 51.7644 90.0189 51.5351 88.7935C51.211 88.7066 51.2347 88.9358 51.1556 88.6038C50.958 88.7066 50.5944 88.5327 50.3967 88.6038C50.3098 88.6275 50.2149 88.9121 50.0173 88.9833C50.0173 88.9912 50.0331 89.8687 50.207 89.5525C50.1596 89.7343 50.0173 90.3114 50.0173 90.3114C49.5825 90.3746 49.1002 90.1691 48.6892 90.3114C48.4125 90.3983 48.199 91.1415 47.9302 91.26C46.5468 91.8608 45.3294 91.0624 44.3254 90.6908C43.9222 91.2363 43.6376 91.347 43.3767 92.2087C43.3846 92.0585 43.4479 90.9359 43.3767 90.6908C43.3451 90.5802 43.0289 90.5485 42.9973 90.3114C42.7285 90.4062 42.3174 90.2086 42.0486 90.3114C41.8984 90.3588 41.5506 90.7304 41.2897 90.8806C41.1079 90.762 40.9102 90.2244 40.7205 90.1217C40.4517 89.9794 38.4833 89.6078 38.0643 89.7422C38.0327 89.7501 37.9141 90.09 37.8746 90.1217C36.7678 91.094 37.337 90.8648 37.4951 92.019L37.6848 92.7779C37.6927 92.77 38.5702 92.7542 38.254 92.5881C38.4754 92.5881 38.7837 92.604 39.0129 92.5881C39.0129 92.6514 38.9813 93.3392 39.0129 93.3471C38.5623 93.2601 38.6967 93.6158 38.254 93.5368C38.0959 93.5052 37.6453 92.8095 37.4951 92.7779C36.9101 92.6514 34.8784 93.2917 34.4594 93.5368C34.2697 93.6396 34.4041 93.9716 34.2697 94.106C34.0404 94.3273 33.6135 94.2957 33.321 94.4854C33.1946 94.5566 33.0602 95.0072 32.9416 95.0546C32.8309 95.0942 32.4752 94.9914 32.3724 95.0546C32.238 94.7068 32.0878 95.0625 31.9929 94.8649C31.9139 94.7068 31.9929 94.272 31.9929 94.106C31.6609 94.0269 31.8823 94.0348 31.8032 93.7265C31.4712 93.7265 30.9731 93.8214 30.6648 93.7265C30.2458 94.3115 29.7794 95.11 29.147 95.4341C28.23 95.9005 26.0639 96.0112 25.5421 96.7622C25.3445 97.0389 25.55 97.2365 25.3524 97.5211C25.0204 97.4025 25.2022 97.7346 25.1627 97.9006C24.6804 97.7504 25.1627 98.4698 25.1627 98.4698C25.6607 98.62 25.7793 98.2642 26.301 98.28C26.301 98.3038 26.2931 98.8413 26.301 98.8492C25.8346 98.9836 25.8741 98.9125 25.3524 99.039C25.637 99.2366 24.8148 99.2129 24.7832 99.2287L24.5935 98.28C24.4591 98.201 23.7002 98.3828 23.6448 98.28C23.4867 97.9638 23.6448 97.1258 23.6448 96.7622C21.6131 96.3116 22.2614 96.4381 21.3681 98.0903C21.3364 98.1535 20.7989 98.6437 20.7989 98.6595C20.6487 99.3394 21.0756 99.9323 20.9886 100.367C20.9412 100.565 20.4827 100.747 20.4194 100.936C20.1902 100.833 19.7237 100.936 19.4708 100.936C19.5024 100.407 19.5498 100.185 19.6605 99.6081C19.4945 99.4817 19.3206 99.4975 19.281 99.2287C18.9174 99.2445 17.9529 99.4184 17.9529 99.4184C17.9371 99.4263 17.4154 99.5686 17.3837 99.6081C17.115 99.8611 17.2652 100.667 17.0043 100.936C16.6248 101.308 15.8817 101.166 15.4864 101.505C15.352 101.608 15.4864 101.996 15.2967 102.075C15.0279 102.177 14.6089 101.972 14.3481 102.075C14.5457 101.98 13.9686 101.695 13.9686 101.695C14.0002 101.632 14.3481 101.126 14.3481 101.126C15.0279 100.92 15.6841 101.023 16.0556 100.557C16.0872 100.509 16.4351 99.9876 16.4351 99.9876C16.4983 99.703 16.2454 98.8492 16.2454 98.8492C14.4508 98.8492 13.4152 99.0627 12.4508 100.367C12.2927 100.573 12.2927 101.023 12.0713 101.126C11.4942 101.379 10.8222 101.047 10.3637 101.316C10.1187 101.45 9.40718 103.711 9.60481 104.351C9.64434 104.486 10.0791 104.723 10.174 104.921C10.5218 104.921 10.9645 104.834 11.3124 104.921C11.2887 104.952 11.0831 105.284 11.1227 105.3C9.66806 105.553 9.62063 105.877 9.03563 107.008C7.14623 107.008 6.84583 107.158 6.37941 108.525V108.905C5.99204 109.213 5.26475 109 4.86157 109.284C3.92873 109.933 4.67184 112.589 4.67184 114.217C5.494 114.447 6.67191 114.826 6.9486 115.545C7.02765 115.743 6.82211 115.925 6.9486 116.115C6.50589 116.423 3.99988 118.652 3.91292 118.961C3.7311 119.569 4.04731 119.965 4.10265 120.478C4.34772 120.471 4.72718 120.763 5.24103 120.668C5.64421 120.581 5.73907 120.083 5.99995 119.909C6.00785 119.909 6.84583 120.21 6.56914 120.289C6.68772 120.376 7.07508 120.534 7.13833 120.668C7.35177 121.095 7.17785 121.411 7.32806 121.996C7.06718 122.044 7.05137 122.36 6.9486 122.565C6.74306 122.463 6.5138 122.036 6.37941 121.996C5.97623 121.862 5.46238 122.06 5.0513 121.996C4.85366 122.613 4.19752 123.743 4.29238 124.463C4.30819 124.581 4.82204 124.945 4.86157 125.032C5.14616 125.672 4.80623 125.68 4.86157 126.36C4.6165 126.234 4.71137 126.653 4.29238 126.55C4.24495 126.542 4.07893 126.21 3.91292 126.17C4.66393 125.886 2.8536 125.886 3.34373 125.981L3.154 126.74C3.91292 127.198 5.29637 127.53 5.81022 128.257C6.09481 128.661 6.00785 129.277 6.37941 129.585C6.97231 130.076 7.70752 129.783 7.89725 130.724C8.11069 131.807 7.35968 132.123 7.51779 133.001C7.59684 133.483 8.46644 133.752 8.65617 134.139C8.79846 134.439 9.01981 135.499 9.03563 135.657C9.11468 136.511 8.81427 138.637 9.22536 139.641C9.2886 139.641 9.35184 139.641 9.41508 139.641C9.98427 139.926 10.3954 140.977 10.9329 141.159H11.3124C11.4072 141.246 11.3677 141.657 11.5021 141.728C11.9211 141.942 12.3875 141.673 12.8302 141.918C13.1781 142.116 14.7117 144.282 13.9686 144.954C14.9093 145.697 16.8225 146.179 16.6248 147.989C16.6169 147.989 16.1268 148.772 16.0556 148.938C16.2928 148.811 16.2058 149.23 16.6248 149.128C16.8304 149.072 16.8857 148.574 17.0043 148.369C17.1545 148.369 17.6288 148.448 17.7632 148.369C18.1585 148.756 19.7 149.91 18.3324 150.266C18.198 150.1 17.9529 149.57 17.7632 149.507C17.5497 149.428 17.2019 149.594 17.0043 149.507C16.9094 149.689 16.5853 149.942 16.4351 150.076C16.4351 150.076 16.4351 150.772 16.6248 150.456C16.7592 150.891 16.7039 150.772 16.8145 151.215C17.194 151.041 17.0043 152.543 17.0043 152.543C18.1506 152.171 18.5616 152.068 19.8502 152.163C19.8818 152.1 20.0004 151.792 20.04 151.784C20.2139 151.736 20.9728 151.926 20.7989 151.974C21.0835 152.456 21.4155 152.875 21.7475 153.302C20.8779 153.563 19.866 153.594 19.6605 154.44C19.6289 154.535 19.7079 154.922 19.6605 155.009C19.5419 155.199 18.9727 155.357 18.9016 155.578C18.7988 155.847 18.9964 156.25 18.9016 156.527C19.2494 156.361 19.534 156.511 19.8502 156.337C20.1981 156.132 20.4748 155.452 20.7989 155.199C21.4392 154.677 22.0716 154.393 22.6962 153.871C23.131 154.511 23.6527 155.405 24.214 155.958C24.4433 156.187 25.2259 156.424 25.3524 156.717C25.5737 157.27 25.1231 157.42 25.1627 157.855L25.5421 158.424C25.8188 159.808 25.6212 159.468 26.1113 160.511C26.3168 160.424 26.6489 160.567 26.8702 160.511C27.392 160.369 27.9691 159.523 28.3881 159.183C29.8189 160.48 31.0206 161.515 33.321 160.322C33.1946 161.444 33.076 162.559 34.08 162.978C34.3804 163.104 34.665 162.923 34.8389 163.168C34.9733 163.342 35.3211 164.662 35.4081 164.875C37.5583 164.551 38.1275 164.812 39.5821 165.634C39.8746 165.452 40.6494 164.606 41.1 164.685C41.1 164.685 40.9498 165.602 40.9102 165.824C41.0446 165.911 41.9696 166.448 42.0486 166.583C42.1988 166.883 41.9696 167.389 42.0486 167.721C42.1198 168.045 42.9577 168.646 42.9973 168.86C43.0763 169.294 42.7206 169.563 42.6178 169.998C43.1396 169.879 43.9301 169.524 44.5151 169.618C45.0448 169.705 45.4479 170.512 45.8432 170.757C46.1436 170.947 46.4519 170.749 46.7919 170.947C47.3057 171.247 48.2623 173.231 48.4994 173.982C49.2188 173.745 50.5311 173.413 51.3454 173.413C51.5825 173.405 51.9936 173.792 52.4837 173.603C52.4837 173.54 52.4837 173.476 52.4837 173.413C52.7921 173.255 52.8237 172.812 53.0529 172.654C53.3612 172.441 53.6379 172.654 54.0016 172.464C54.5708 174.346 53.8277 173.666 55.7092 174.172C55.7487 174.109 56.0096 173.626 56.0886 173.603C56.3021 173.516 56.4523 173.706 56.6578 173.603C56.8159 173.737 57.0452 174.259 57.227 174.362C57.7567 174.646 59.2824 174.67 59.8832 174.741C59.9465 175.168 59.733 175.658 59.8832 176.069C60.1757 176.876 63.6936 177.524 64.8162 177.777C64.8952 178.109 64.7292 178.386 64.8162 178.725C64.8241 178.757 66.4684 180.409 66.5238 180.433C68.1918 181.184 68.2392 179.903 68.9902 179.674C70.5081 179.208 71.0615 180.109 71.6465 180.433C71.9548 180.607 72.2473 180.457 72.5951 180.623C72.6979 180.346 72.9113 180.37 73.1643 180.243C73.0141 179.184 73.0694 178.599 72.9746 177.967C73.275 178.046 73.4331 177.864 73.7335 177.777C73.8995 178.069 74.3659 179.176 74.6821 179.295C75.7573 179.698 77.1644 178.939 77.9075 178.915C79.1803 178.86 79.3384 179.334 79.9946 179.864C81.7733 179.081 81.9235 179.824 83.9789 179.484C84.1686 179.453 85.0066 178.923 85.1173 178.915C85.7734 178.805 86.4138 179.176 86.8248 179.105C87.0067 179.073 87.3861 178.623 87.5838 178.536C87.4968 178.196 87.6707 177.919 87.5838 177.587C87.5679 177.516 85.6865 174.82 88.1529 175.5C88.2399 175.516 88.5719 176.038 88.7221 176.069C89.1095 176.14 89.2992 175.84 89.4811 175.88C89.2834 175.721 89.6392 175.057 89.6708 174.931C89.4573 174.82 89.5917 174.599 89.4811 174.551C89.1411 174.385 88.8565 174.441 88.5324 174.362C88.5561 173.974 88.3269 173.792 88.3427 173.603C88.3901 172.923 89.5443 172.575 89.8605 172.085C90.0977 171.705 89.9949 171.16 90.24 170.757C90.5246 170.267 92.7618 169.302 93.6551 169.429C93.7421 169.437 94.1848 169.982 94.2243 169.998C94.4219 170.061 94.8014 169.887 94.9832 169.998C95.2362 170.148 95.4655 170.836 95.7421 170.947C95.8844 171.002 96.1611 170.852 96.3113 170.947C96.4773 168.804 96.3904 169.302 98.0189 169.239C97.9952 169.745 98.1375 170.456 98.0189 170.947C98.011 170.962 97.4813 171.294 97.4497 171.326C97.7896 172.607 97.3707 172.235 98.2086 173.034C98.011 173.097 97.9082 173.381 97.8292 173.413C97.5288 173.508 97.1809 173.326 96.8805 173.413C97.1809 173.524 96.1532 173.595 96.1216 173.603C96.0742 173.468 96.0346 173.192 95.9319 173.034C94.9911 171.634 95.2283 171.705 92.8962 171.705C92.7618 172.077 92.7618 172.694 92.5167 173.034C92.3033 173.31 91.6392 173.366 91.3784 173.603C91.0938 173.848 91.2044 173.785 90.9989 174.172C91.0068 174.172 90.9989 174.71 90.9989 174.741C91.1333 174.741 91.6471 174.654 91.7578 174.741C91.7499 174.804 91.8922 175.397 91.9475 175.69C91.0068 175.69 92.0187 177.176 92.1373 177.397C91.5127 177.887 90.9989 178.386 90.4297 178.915C90.5325 179.247 90.6669 179.326 90.6194 179.674C92.5958 180.828 92.9831 180.623 94.0346 178.725C94.1611 178.884 94.6591 178.923 94.7935 179.105C94.9595 179.334 94.8251 179.619 94.9832 179.864C95.75 181.105 96.675 180.504 97.6394 180.054C97.4813 178.623 97.6078 178.362 97.8292 177.397C98.011 177.5 98.3904 177.31 98.5881 177.397C98.8727 177.516 99.1257 178.425 99.5367 178.536C100.968 178.891 101.165 177.808 101.813 177.397C102.146 177.176 102.414 177.374 102.762 177.208C103.094 177.034 103.418 176.48 103.711 176.259C103.861 176.33 104.122 176.219 104.28 176.259C104.58 176.33 104.818 176.915 105.039 177.018C105.679 177.318 106.043 177.05 106.746 177.018C106.778 176.884 107.118 176.48 107.126 176.449C107.387 175.421 106.541 174.923 107.316 174.362C107.513 174.449 107.861 174.283 108.075 174.362C108.375 174.464 108.422 175.152 108.644 175.31C109.656 176.053 110.486 175.31 111.3 174.931C111.276 174.37 111.3 173.777 111.3 173.223C110.865 173.049 109.743 172.709 109.592 172.275C109.513 172.061 109.679 171.713 109.592 171.516C110.083 171.65 110.011 171.2 110.541 171.516C111.173 171.887 110.794 172.749 112.059 172.654C112.802 172.591 113.506 171.769 113.766 171.136C113.766 171.136 114.233 170.883 113.956 170.757C113.64 170.607 113.276 170.006 113.387 169.429C113.403 169.342 113.901 169.112 113.956 169.049C114.399 168.456 114.296 167.99 114.525 167.152C114.359 167.025 114.185 167.041 114.146 166.772C114.083 166.772 113.624 166.804 113.577 166.772V166.203C116.178 167.405 116.462 166.346 118.889 165.634C118.945 165.294 118.905 164.551 119.079 164.116C119.158 163.895 119.759 163.626 119.838 163.357C119.941 162.978 119.759 162.606 119.838 162.219C119.664 162.085 119.522 162.092 119.458 161.84C119.205 161.84 118.731 161.934 118.51 161.84C118.383 161.776 118.209 161.12 118.13 161.081C118.304 161.073 118.573 160.788 118.699 160.701C119.751 161.405 119.34 161.318 120.786 161.27C120.739 160.812 121.016 160.962 120.976 160.511C120.952 160.314 120.423 159.832 120.407 159.752C120.281 159.081 120.707 158.915 120.786 158.614C120.873 158.25 120.684 157.831 120.786 157.476C120.897 157.065 121.49 156.685 121.735 156.337C121.656 156.203 121.767 155.903 121.735 155.768C121.632 155.333 120.763 155.033 120.407 154.82C120.873 153.238 121.451 152.725 121.735 150.835C121.577 150.796 121.229 150.464 121.166 150.456C120.028 150.203 119.474 151.349 118.889 151.784C118.786 151.855 118.573 152.25 118.51 152.353C118.431 151.966 118.296 151.064 118.13 150.456C118.083 150.298 117.585 149.847 117.561 149.697C117.379 148.574 118.486 148.416 118.699 147.61C118.699 147.547 118.699 147.483 118.699 147.42C118.668 147.562 118.462 146.859 118.51 146.661C118.573 146.353 120.067 143.744 119.269 143.246C118.146 142.535 117.458 143.657 116.802 143.815C116.691 143.839 116.328 143.768 116.233 143.815C116.186 143.61 115.877 143.515 115.853 143.436C115.648 142.835 115.853 141.791 115.853 141.159C115.956 141.507 116.043 140.969 116.043 140.969C115.395 139.538 115.529 139.902 113.956 140.021C113.782 140.677 113.387 143.112 112.818 143.436C112.359 143.689 111.743 143.428 111.3 143.625C111.213 143.657 110.77 144.187 110.731 144.195C110.312 144.282 110.17 143.957 109.972 144.005C110.193 144.005 109.782 143.436 109.782 143.436C109.727 142.748 110.478 141.57 110.541 141.159C110.636 140.4 110.256 139.768 110.162 139.262L110.351 138.692C110.707 138.772 111.134 138.574 111.49 138.692C112.375 138.993 112.075 140.685 113.577 140.021C115.071 139.349 114.178 137.728 113.766 136.795C112.77 136.874 112.343 136.858 111.49 136.985C111.861 135.696 111.743 135.831 111.49 134.708C111.316 134.684 110.865 134.463 110.541 134.329C110.541 134.329 109.276 135.554 109.592 135.657C110.407 135.91 109.964 138.076 109.592 138.692C109.316 139.135 108.391 139.428 107.885 139.641C108.027 137.214 107.814 137.728 109.403 136.226C109.173 135.522 109.229 135.348 109.023 134.708C109.118 134.629 109.537 134.439 109.592 134.329C109.758 133.965 109.434 133.767 109.782 133.57C109.782 133.57 109.434 132.582 109.403 132.431C109.592 132.55 109.964 132.495 110.162 132.621C110.28 132.692 110.422 133.151 110.541 133.19C110.747 133.254 111.45 133.048 111.3 133.001C111.34 132.89 111.83 132.732 111.869 132.621C112.067 132.044 111.672 131.103 111.869 130.534C112.011 130.115 113.047 130.289 112.818 129.016C112.739 128.589 111.972 128.155 111.679 127.878C112.249 126.645 112.249 127.135 111.869 125.981C111.592 125.127 111.34 124.21 110.541 123.894C108.47 123.079 108.193 124.249 108.454 125.981C108.32 126.083 107.545 126.415 107.505 126.55V126.929H107.126C106.984 126.415 107.094 126.06 106.746 125.791L106.557 125.601C106.644 125.514 106.501 125.158 106.557 125.032C106.62 125.032 106.683 125.032 106.746 125.032C107.474 124.668 107.774 123.949 108.264 123.324C106.399 122.984 106.399 122.154 105.798 120.099C106.248 119.886 107.213 119.166 107.695 119.15C108.707 119.103 108.47 119.68 108.833 119.909C109.173 120.123 109.411 119.878 109.782 120.099C110.019 119.941 110.272 119.656 110.541 119.53C110.399 118.968 110.596 118.597 110.351 118.202C110.32 118.162 109.592 117.822 109.592 117.822C109.411 117.111 110.122 117.127 109.972 116.304C109.893 115.877 109.229 115.648 109.023 115.356C108.849 115.111 108.976 114.826 108.833 114.597C108.501 114.067 107.679 113.767 107.126 113.458C107.205 113.087 107.023 112.676 107.126 112.32C107.189 112.114 107.853 111.648 107.885 111.371C107.988 110.32 106.881 109.751 106.177 109.474C105.79 109.324 106.699 109.055 106.936 109.095L107.316 109.474C109 109.925 108.691 108.296 108.644 107.387C108.399 107.348 108.375 107.039 108.264 107.008C107.339 106.683 106.138 107.735 105.608 107.956L105.229 107.387C105.26 107.276 105.758 107.11 105.798 107.008C105.901 106.683 105.798 106.209 105.798 105.869C106.09 105.996 105.901 105.561 106.367 105.679C106.446 105.695 106.644 106.185 106.746 106.249C107.711 106.849 108.114 106.375 108.833 105.869C108.059 103.94 108.035 103.181 105.798 104.351C105.829 104.328 105.798 103.822 105.798 103.782C106.549 103.45 106.92 103.513 107.316 102.834C107.363 102.747 107.584 102.691 107.695 102.644C107.608 102.438 107.766 102.09 107.695 101.885C107.569 101.513 106.833 101.158 106.746 100.747C106.501 99.6477 106.912 98.8334 106.746 97.7108C106.928 97.8215 107.118 97.3946 107.505 97.7108C107.909 98.0508 107.561 99.624 107.505 100.367C107.869 100.312 108.193 100.612 108.833 100.367C108.897 100.335 108.968 99.9955 109.023 99.9876C109.039 99.8137 109.561 99.4975 109.403 98.8492C109.395 98.8018 109 98.4144 109.023 98.28C109.063 98.0033 109.869 97.8136 109.782 96.7622C109.727 96.1377 109.086 96.3274 109.403 95.4341C109.411 95.3788 109.909 94.9598 109.972 94.8649C109.972 94.8649 109.932 94.3748 109.782 94.6752C109.664 94.6119 109.577 93.9795 109.403 93.9163C109.015 93.774 108.304 93.9163 107.885 93.9163V93.5368C107.948 93.5368 108.011 93.5368 108.075 93.5368C108.106 93.4024 108.162 92.6751 108.264 92.5881C109.079 91.8608 109.956 92.6751 110.921 92.3984C111.031 92.3668 111.308 91.9162 111.49 91.8292C111.49 91.6553 111.411 91.2284 111.49 91.0703C110.865 90.2956 110.32 89.8766 109.403 89.3627C109.403 89.1256 109.513 88.4141 109.403 88.2244C109.173 87.8528 108.802 88.1058 108.454 87.8449C108.019 87.5287 107.83 86.501 107.695 85.9476C107.49 85.9002 107.395 85.5919 107.316 85.5681C104.952 84.7539 105.829 87.4971 106.177 88.4141C105.845 88.5248 105.829 88.4299 105.608 88.6038C104.873 89.1809 104.968 89.1098 103.901 88.7935C104.043 88.5643 103.505 88.5327 103.711 88.4141C104.778 87.7658 104.335 86.5484 104.28 84.9989L104.849 84.8092C105.806 83.1254 105.023 83.236 103.331 83.2914C103.466 85.1966 103.735 84.659 102.193 84.9989C101.205 83.5602 100.825 83.2914 98.9675 83.2914C98.8964 83.4495 98.7383 84.0187 98.5881 84.24C98.6592 84.3507 99.1257 84.7302 99.1573 84.8092C99.0545 84.8804 99.1573 85.6156 99.1573 85.7579C98.6276 85.8606 98.4063 85.7737 98.0189 85.9476C97.7422 84.8725 97.5367 83.236 97.0702 82.3427C97.6315 81.9 97.9873 81.6154 98.3984 81.0146C98.2402 80.7537 98.264 80.3269 98.2086 80.066C98.0821 80.0423 97.2363 79.9395 97.4497 80.066C96.8726 80.3743 96.841 80.1134 96.5011 80.6352C96.4141 80.7537 96.1295 81.6471 96.1216 81.7735C95.9002 81.7182 95.3785 81.5759 95.3627 81.5838C95.252 81.4257 95.1334 81.1174 94.9832 81.0146C94.7777 81.149 94.6749 80.6905 94.6038 80.6352C96.0188 79.8446 96.0584 80.0897 95.7421 78.5481C95.4971 78.5086 95.4734 78.2082 95.3627 78.1687C95.1255 78.0817 94.4773 78.3268 94.6038 78.3584H94.2243C93.9476 78.4533 93.9713 79.1964 93.6551 79.3071C93.4496 79.3703 93.0859 79.2043 92.8962 79.3071C92.659 78.4216 92.3191 77.1331 91.5681 76.8406C91.3625 76.7615 91.1807 76.9591 90.9989 76.8406C90.904 76.9908 90.4139 77.1331 90.24 77.22ZM152.471 51.4168C152.456 51.4089 151.127 51.733 150.574 51.7962C150.606 51.9781 150.392 52.4761 150.764 52.3654C150.977 52.6342 151.135 52.99 151.333 53.3141C152.4 53.1481 152.313 53.6698 153.041 52.5552L153.42 52.3654C153.46 52.2152 153.309 51.5749 153.23 51.7962C152.906 51.6697 153.096 51.4405 152.471 51.4168ZM161.199 26.7519C160.985 27.076 161.112 27.2658 161.009 27.7006C160.14 27.4713 159.784 27.5503 158.922 27.3211C157.768 29.8034 158.179 29.1077 155.317 29.2184L154.369 29.5978C154.218 29.6295 154.029 29.4318 154.179 29.4081C153.91 29.2895 153.491 29.5188 153.23 29.4081C152.985 29.3053 152.946 28.0958 151.902 28.4595C151.878 28.4674 151.444 29.1868 151.902 29.0287C151.902 29.0287 152.052 29.9615 152.092 30.167C151.222 30.7837 151.357 30.5623 150.764 31.4951C150.203 31.3291 149.997 31.3687 149.625 31.1157C148.906 30.6335 149.285 30.2224 149.436 30.3568C149.499 29.9378 149.997 29.9536 149.815 29.2184C149.768 29.0445 149.159 28.8073 149.056 28.6492C148.898 28.412 148.953 28.1907 148.866 27.8903C148.803 27.9061 148.195 27.748 147.918 27.7006C147.839 28.6413 147.76 29.6137 147.918 30.7362C147.459 30.7837 146.274 30.7204 145.641 30.926C145.364 31.005 144.771 31.8351 144.503 32.0643C144.266 31.9616 143.799 32.0643 143.554 32.0643C143.467 31.756 143.428 31.4161 143.364 30.926C142.835 30.7916 142.06 30.2777 141.088 30.5465C140.969 30.5781 140.574 31.092 140.518 31.1157H140.139C138.763 32.4517 140.89 32.76 141.657 33.2027C141.894 33.3371 142.179 33.8114 142.416 33.9616C142.099 34.1751 141.894 34.3095 141.657 34.5308C140.827 33.9458 139.902 33.2501 138.431 33.7719C138.107 33.8747 137.807 34.4439 137.483 34.5308C137.119 34.6257 136.708 34.4597 136.344 34.5308C136.147 33.7798 135.736 32.2857 134.826 32.2541C134.526 32.2383 134.265 32.5466 133.878 32.6335C133.83 32.8312 133.522 32.9339 133.498 33.013C133.324 33.5189 133.348 34.349 133.309 34.7206C131.925 35.0763 130.977 35.4795 129.324 35.6692C129.048 36.4123 128.866 36.9183 128.565 37.5665H128.186V37.187C127.87 36.2779 126.937 36.6732 126.289 36.8076C126.044 38.2543 125.672 38.5547 125.15 39.6535C123.53 39.116 123.893 39.1397 122.684 39.6535C122.684 40.0014 122.763 40.4441 122.684 40.7919L123.253 40.9816C123.245 40.9816 123.253 41.5192 123.253 41.5508C122.296 41.4085 121.759 41.5192 120.976 41.5508C120.905 41.9777 120.447 41.9224 120.597 42.6892C120.605 42.7287 121.198 43.4323 121.166 43.4481C120.628 43.6774 120.36 44.966 120.217 45.5351C118.644 45.9304 117.909 45.883 116.802 46.6735C116.865 47.1004 116.652 47.5906 116.802 48.0016C116.929 48.3574 117.877 48.6341 118.13 48.9503C118.431 49.3218 118.494 50.2152 118.889 50.4681C119.324 50.7448 119.735 50.4049 120.028 50.4681C120.067 50.476 120.225 50.816 120.407 50.8476C120.399 50.8634 120.067 51.9781 120.217 51.986C118.952 51.8437 118.581 51.8595 117.371 52.1757C117.458 51.2903 117.672 50.0017 116.802 49.7092C116.589 49.6302 116.241 49.7962 116.043 49.7092C115.996 49.9068 115.687 50.0096 115.664 50.0887C115.363 50.9662 116.075 51.3219 115.853 52.1757C115.727 52.6342 113.142 54.7608 112.628 55.4011C112.857 55.6145 112.715 55.7568 112.818 56.16C113.276 56.2786 114.043 56.6343 114.525 56.7292C112.343 57.2668 111.268 58.0494 112.249 60.1443C111.592 60.6108 109.964 62.3737 110.162 63.5595C110.201 63.8204 110.857 64.1287 110.921 64.3184C110.992 64.5239 110.826 64.8718 110.921 65.0773C110.502 65.3145 108.359 66.9035 108.264 67.1643C108.13 67.5043 108.343 67.9391 108.264 68.3027C108.343 68.3185 108.881 68.4055 109.023 68.4925C109.166 68.5715 109.102 68.9905 109.213 69.0616C108.913 69.5676 108.027 70.2475 107.885 70.7692C107.663 71.5598 108.241 72.9906 107.505 73.2357C107.078 73.3701 108.075 74.3741 108.075 74.3741C108.075 74.4373 108.075 74.5006 108.075 74.5638C108.209 74.6271 108.565 75.22 108.644 75.3227C108.841 75.5915 108.968 75.6785 109.213 75.8919C108.81 76.4769 107.837 77.473 108.264 78.7379C108.304 78.8723 108.731 79.1015 108.833 79.3071C109.363 79.2201 109.774 79.1331 110.162 79.1173C110.162 79.7498 110.162 80.3743 110.162 81.0146C110.201 80.6035 110.17 82.9989 110.351 83.2914C110.47 83.489 111.268 83.5127 111.49 83.6708C111.624 83.7657 111.687 84.3191 111.869 84.4298C112.304 84.6985 113.166 84.8646 113.577 84.9989C113.577 85.4891 113.403 86.4377 113.577 86.8962C113.782 87.4575 114.683 87.4101 115.284 87.6552C115.474 87.3785 115.822 87.1729 116.043 86.8962C116.217 86.667 116.296 86.3666 116.423 86.1373C116.581 86.5958 116.984 87.9319 117.371 88.2244C118.035 88.7382 118.731 88.5327 119.648 88.4141C119.569 88.5485 119.68 88.841 119.648 88.9833C119.593 89.1809 118.858 89.7738 118.699 89.9319C118.873 90.177 118.976 90.6355 119.079 90.8806C119.703 90.8806 120.241 90.7936 120.976 90.8806C121.277 90.9122 121.735 91.426 122.494 91.26C122.66 91.2205 123.087 90.5565 123.253 90.5011C123.459 90.4221 123.806 90.5881 124.012 90.5011C125.095 92.0348 124.391 92.1217 126.668 92.5881C127.301 91.679 127.878 89.7501 129.704 90.1217C129.814 90.1375 130.265 90.8331 130.463 90.8806C131.166 91.0308 131.562 90.4695 132.36 90.6908C132.542 90.7383 132.755 91.347 132.929 91.4498C133.23 91.6316 133.538 91.4419 133.878 91.6395C134.068 91.7423 134.099 92.2877 134.257 92.3984C134.581 92.6277 136.929 93.5526 137.672 93.3471C137.997 93.2443 138.202 92.5012 138.621 92.3984C139.633 92.1454 140.107 92.8332 141.088 92.5881C141.76 92.4142 142.186 91.1019 142.416 90.5011C145.009 90.849 144.155 90.5564 145.641 89.5525C145.941 89.339 146.313 89.3785 146.59 89.173C146.756 89.0386 146.961 88.4773 147.159 88.4141C147.926 88.1611 148.827 88.6117 149.625 88.4141C149.957 88.3271 150.305 87.8291 150.574 87.6552C150.511 87.3389 150.369 86.8014 150.384 86.7065C149.934 86.501 149.444 86.1452 149.056 85.9476C149.689 85.995 150.566 86.1927 150.954 86.1373C151.625 86.0346 153.309 84.7302 153.42 84.0503C153.515 83.4337 152.55 82.6827 153.42 82.3427C153.886 82.1609 154.622 82.4218 155.128 82.3427C155.57 82.2716 156.432 81.734 156.835 81.5838C156.748 81.3308 156.835 80.9039 156.835 80.6352C155.547 80.0264 155.294 79.979 153.989 80.8249L153.799 81.2044C153.127 81.315 153.262 80.8565 152.851 80.8249C152.898 80.5324 153.048 79.9395 153.041 79.8762C154.543 80.0185 155.27 80.0185 156.076 79.1173C157.515 77.5046 156.701 77.0461 154.938 76.4611C155.041 76.2477 154.851 76.1133 154.938 75.8919C155.017 75.6785 155.618 75.3385 155.697 75.133C155.768 74.9196 155.61 74.5717 155.697 74.3741H156.076C156.116 74.3899 156.076 75.0619 156.076 75.133C156.329 75.2595 156.519 75.2595 156.645 75.5125C157.657 75.1725 159.373 74.5006 159.491 73.4254C159.657 71.8048 157.681 71.8443 156.645 71.9076C157.088 70.8246 157.223 70.2396 157.025 68.8719C157.475 68.7059 157.681 68.785 158.163 68.6822C158.203 68.4766 158.511 68.3818 158.543 68.3027C158.891 67.2908 158.495 67.3383 159.112 66.5952C159.349 66.2948 159.768 66.0892 160.061 65.8362C160.013 66.0023 159.697 66.4924 159.681 66.5952C159.586 67.2197 160.037 67.3857 159.871 67.9233C159.808 68.113 159.072 68.5399 158.922 68.6822C159.001 68.9273 158.922 69.3621 158.922 69.6308C159.855 69.8127 159.76 70.4846 160.819 69.4411C161.159 69.0933 161.009 68.8087 161.199 68.3027C161.373 68.4134 161.752 68.2158 161.958 68.3027C162.108 68.3581 162.282 69.0933 162.337 69.2514C163.088 68.8877 164.069 68.8008 164.424 68.113C164.511 67.9391 165.009 65.4173 164.994 65.267C164.962 64.9508 164.48 64.6662 164.614 63.9389C164.614 63.9389 165.476 62.4369 165.563 62.2314C164.907 62.0495 164.748 61.8124 164.045 61.6622C164.148 61.5989 163.942 61.1562 164.045 61.093C164.322 60.927 164.701 60.9665 164.994 60.9033C164.978 60.6898 164.867 59.757 164.994 59.3854C165.041 59.2273 165.61 58.9269 165.752 58.8162C165.31 57.8755 165.191 57.33 164.804 56.3497C165.215 56.1521 165.571 56.2154 165.942 55.9703C166.092 55.8675 166.337 55.2746 166.511 55.2114C167.112 54.9663 167.681 55.1956 168.219 55.0216C168.567 54.8952 168.804 54.4445 169.357 54.4524C170.527 54.4683 170.772 55.662 171.065 56.5395C171.239 56.4367 171.697 56.1521 171.824 56.16C171.745 55.1402 171.879 54.7291 172.014 53.8833C172.053 53.6619 171.832 53.401 171.824 53.5038C171.824 53.4722 171.824 52.9346 171.824 52.9346C172.48 52.4208 173.065 51.9306 173.721 51.4168C173.65 51.0452 173.816 50.6341 173.721 50.2784L173.342 49.8989C173.342 49.8989 173.168 49.5511 173.152 49.5195C172.535 49.6064 171.84 49.891 171.255 49.7092C171.16 49.6776 170.836 49.2112 170.685 49.14C171.128 48.4206 171.247 48.1597 171.824 47.6222C171.571 46.6261 170.907 43.8118 171.065 42.8789C171.183 42.1358 172.353 41.5745 172.583 40.9816C173.128 39.4796 172.116 36.0408 171.255 35.6692C170.353 35.2739 169.302 35.8985 168.409 35.4795C168.124 35.3451 168.219 34.7917 168.029 34.5308C167.634 33.9933 166.843 34.1672 166.322 33.7719C165.721 33.3134 165.073 30.9892 164.424 30.7362C164.227 30.6572 164.021 30.8548 163.855 30.7362C163.515 32.6256 163.578 32.5466 161.768 33.013C161.634 32.76 161.586 32.341 161.389 32.0643C161.238 31.8588 160.503 31.6928 160.44 31.4951C160.219 30.7837 160.851 30.4121 160.63 29.5978C160.551 29.3133 159.887 29.0208 159.681 28.8389C159.681 28.8389 159.855 28.4832 159.871 28.4595C160.329 28.499 160.946 28.3093 161.389 28.4595C161.768 28.586 162.045 29.4714 162.527 29.5978C164.938 30.2066 164.432 28.4358 163.476 27.7006C162.835 27.2025 162.282 27.0049 161.578 26.5622L161.199 26.7519ZM43.5664 24.2854C43.2898 24.5542 43.5664 25.242 43.3767 25.6135C43.1949 25.9456 42.1988 26.4278 41.4794 26.1827C41.4794 26.1827 41.1237 25.1708 40.5308 25.0443C39.9774 24.9258 39.2659 25.2262 39.0129 25.2341L38.8232 26.7519L37.8746 27.8903L38.4437 28.08C38.8074 28.6413 38.8548 28.8705 39.2027 29.5978C39.005 29.503 38.6493 29.669 38.4437 29.5978C37.7955 29.3686 37.084 27.4476 36.3567 27.1314C35.4318 26.7203 33.8349 26.7598 32.7519 26.5622C32.5542 26.831 32.2617 26.9495 31.9929 27.1314C32.0008 27.1314 31.9929 27.6689 31.9929 27.7006C32.2301 27.7638 32.2933 28.1749 31.9929 28.08C31.9534 28.0721 31.8348 27.7638 31.8032 27.7006C31.2735 27.7006 30.6174 27.7164 30.0956 27.7006C29.8664 28.9496 29.3367 29.5109 28.7675 30.3568C28.5383 30.1749 28.2379 30.341 28.0086 30.167C27.9296 30.1038 27.645 29.4635 27.6291 29.4081C28.9019 29.0524 25.4868 29.4793 26.8702 29.5978C26.5619 29.6848 26.3406 29.6058 26.1113 29.7876L24.9729 31.1157C24.6725 31.6453 24.8306 32.6572 24.214 33.013C23.9294 33.1711 23.1073 33.1632 22.8859 33.2027C21.9531 35.6455 22.0875 34.0249 20.6091 34.7206C20.3641 34.8312 20.2534 35.4953 20.04 35.6692C19.8423 35.8194 19.4866 35.7483 19.281 35.8589L19.0913 36.2384C18.2612 36.776 17.4786 36.5862 16.6248 36.6179C16.5141 36.8866 16.443 37.4321 16.2454 37.7562C15.9212 38.2701 15.2414 38.1752 14.7275 38.5151C14.0714 38.9341 12.5298 41.4006 12.0713 41.5508C12.0081 41.5666 11.2729 41.3374 10.9329 41.3611C10.2293 41.4006 9.04353 41.7801 8.46644 41.9303C8.46644 42.9264 8.5534 43.6062 8.65617 44.3968C8.21346 44.2861 8.71941 44.6102 8.27671 44.5865L7.89725 44.207C7.25691 44.0331 6.52961 44.6497 6.37941 44.966C6.06319 45.6221 6.33198 46.215 6.37941 46.8633C6.70353 46.8633 7.20157 46.7605 7.51779 46.8633C7.34387 49.0372 7.57313 49.061 5.62049 48.9503C5.56515 49.0768 5.15407 49.4325 5.0513 49.5195C5.27265 50.2705 5.21731 50.6104 5.43076 51.4168C5.35171 51.401 4.6086 51.5591 4.29238 51.6065C4.29238 51.6065 4.37934 50.6183 2.39508 51.986C2.67177 54.0809 1.69941 54.8003 2.01562 57.1087C1.45434 57.4328 0.814001 57.915 0.308055 58.247C0.371298 58.5791 0.236906 58.8558 0.308055 59.1957C0.40292 59.67 0.995825 60.3025 1.06697 60.9033C1.13812 61.5594 1.05907 62.1286 0.877244 62.6108C0.869339 62.6266 0.497784 62.8006 0.497784 62.8006C0.284338 63.9706 0.758663 65.3698 0.877244 66.4054C1.1065 66.4845 1.35947 66.3975 1.44643 66.5952C1.53339 66.7928 1.34366 67.1564 1.44643 67.3541C1.31204 67.5122 0.79819 67.7335 0.687514 67.9233C0.0708925 68.9193 0.655893 69.8127 0.497784 70.9589C0.497784 70.9589 0.157852 71.125 0.118325 71.1487V71.5281C0.0629871 71.8285 -0.118837 72.461 0.118325 73.046C0.165757 73.1646 0.584744 73.3227 0.687514 73.4254V73.8049C2.64806 73.9393 2.66387 73.963 3.72319 72.6665C3.86549 72.7139 4.26866 72.8721 4.29238 72.8562C4.20542 73.125 3.93664 73.4808 3.91292 73.6152C3.84968 73.8919 4.10265 74.7535 4.10265 74.7535C4.18961 74.8168 4.64022 75.0302 4.67184 75.133C4.81414 75.5757 4.63231 76.1844 4.67184 76.6508C2.93265 75.8445 1.80218 76.0105 2.58481 78.1687C2.67968 78.4375 2.569 78.6035 2.77454 78.7379C3.11447 78.9592 3.64414 78.7221 4.10265 78.9276C4.22123 78.9829 4.54535 79.6628 4.67184 79.6865C5.88927 79.9158 6.38731 78.6746 6.75887 77.9789C6.97231 78.0817 7.28062 78.3426 7.51779 78.3584C6.86164 79.6786 7.12252 79.481 7.51779 80.6352C7.47826 80.651 7.51779 81.1569 7.51779 81.2044C7.41502 80.9277 7.31225 81.6945 7.32806 81.7735C7.57313 82.8961 9.13049 82.7933 10.174 82.7222C10.1108 82.8171 10.2135 83.1807 10.174 83.2914C9.96846 83.8052 8.72731 84.3428 8.27671 84.6195C8.38738 84.9357 8.15813 85.244 8.27671 85.5681C8.33995 85.7579 9.38346 86.6512 9.60481 86.7065C10.3874 86.8962 11.7788 86.3982 12.261 86.1373C12.4429 86.0346 12.7512 85.4179 13.02 85.3784C13.6208 85.2756 13.8342 85.6156 14.3481 85.7579C14.3322 85.7579 14.3481 86.2954 14.3481 86.3271C11.9843 86.5879 11.3598 87.1729 12.6405 88.9833C13.6524 88.7224 13.8975 88.8568 14.9172 88.6038C14.9963 89.2283 15.1702 90.4537 15.6762 90.6908C16.0161 90.849 16.609 90.6355 17.0043 90.6908C19.0202 90.9675 19.0676 91.8371 20.4194 89.9319C21.3918 90.0426 21.9926 90.2086 22.6962 89.9319L23.0756 89.5525C23.7081 89.4655 24.3642 89.9003 24.7832 89.9319C25.3208 89.9635 25.5105 89.7422 25.9216 89.7422C26.0402 89.26 26.135 88.8489 26.301 88.2244C26.0006 87.9793 25.6923 87.8607 25.3524 87.6552V87.2757C25.9769 86.9753 26.6884 86.5089 27.2497 86.3271C27.8979 86.1057 28.9177 86.0187 29.5264 86.3271L29.9059 86.7065C30.8862 86.8488 31.3684 86.2401 31.9929 86.1373C32.4198 86.0583 33.1155 86.3033 33.5108 86.1373C34.0879 85.8844 34.0562 84.6985 34.4594 84.24C34.8784 83.742 35.835 83.5127 36.3567 83.1017C36.1749 82.6431 36.9259 83.1017 36.9259 83.1017C37.1947 84.825 36.9022 84.5404 38.6335 84.8092C38.9181 84.2716 39.3845 83.1175 40.1513 83.1017C40.4833 83.0858 40.2541 83.3625 40.7205 83.2914C40.8154 83.5602 40.6177 83.9712 40.7205 84.24C40.76 84.3428 41.1948 84.6116 41.2897 84.8092C41.4952 84.7223 41.8273 84.8646 42.0486 84.8092C42.6415 84.6432 42.9577 83.2677 43.187 82.7222C45.3135 82.6352 44.8708 82.825 45.6535 81.3941C46.4994 81.5048 46.9421 81.4494 47.7405 81.3941C47.78 81.1885 48.0883 81.0937 48.12 81.0146C48.2623 80.6035 47.9777 80.1055 48.12 79.6865C48.2306 79.3466 49.037 79.0304 49.2583 78.7379C49.5034 78.4137 49.535 77.8525 49.8275 77.5995C50.3888 77.0935 51.2584 77.0698 51.5351 76.2714C51.6774 75.8524 51.456 75.386 51.5351 74.9433C51.5667 74.714 52.0806 74.0262 52.1043 73.8049C52.2466 72.3582 51.4086 72.2317 50.5865 71.7179C50.3414 72.0499 50.0805 72.3424 49.8275 72.6665C50.3019 72.7535 49.2583 73.046 49.2583 73.046C49.4402 72.0183 49.1081 72.0499 50.207 71.3384C50.6497 71.0459 50.9343 71.0775 51.3454 70.7692C51.4719 70.6664 51.5746 70.2633 51.7248 70.2C52.3731 69.8838 53.1636 70.1763 53.8119 69.8206C54.1123 69.6466 53.9542 69.0537 54.1913 68.8719C53.8909 68.3264 54.1202 68.2474 53.6221 67.9233C53.3375 67.7414 53.0371 67.694 52.6735 67.5438C52.8711 67.4094 53.0134 66.8719 53.2427 66.7849C53.7881 66.5635 54.3415 66.8402 54.7605 66.5952C55.1321 66.3659 54.887 66.0023 55.14 65.6465C55.2981 65.4093 55.9384 65.2987 56.0886 65.0773C56.2625 64.8006 56.9503 62.761 56.8475 62.2314C56.7843 61.931 56.1914 61.6859 56.0886 61.4725C55.8831 61.0298 56.0491 60.7293 55.8989 60.1443C56.1519 60.1364 56.1756 59.7886 56.2783 59.7649C56.6815 59.6621 56.8238 60.089 57.0373 60.1443C58.1915 60.4052 58.4286 59.7333 58.9346 59.3854C58.8397 58.5712 58.7132 57.5751 58.7448 56.9189C57.8436 56.4604 57.4721 56.745 57.4167 55.4011C57.3535 54.0967 58.065 54.1758 58.1756 53.6935C58.2626 53.2983 57.9938 52.6342 57.9859 52.5552C57.8436 50.8792 58.4444 50.7132 57.9859 49.14C58.2389 49.0452 58.6658 49.14 58.9346 49.14C59.5038 47.9226 59.4326 48.4206 59.1243 47.053C58.8713 46.9739 58.5235 47.0056 58.3654 46.8633C57.9464 46.4759 57.5669 45.7802 57.227 45.3454C58.0492 44.6972 58.6262 44.0489 59.5037 43.4481C59.401 43.1161 59.5986 42.8236 59.5037 42.4995C59.4721 42.3888 58.9741 41.9382 58.9346 41.7406C58.7527 40.9184 58.8555 40.3887 58.7448 39.6535C58.9583 39.6614 59.7804 39.7958 60.2627 39.8433C60.2627 39.8433 60.4919 38.9658 60.4524 38.7049C60.4366 38.61 59.5433 36.2779 59.5037 36.2384C59.314 36.0645 58.7527 35.9854 58.5551 35.8589C58.8318 34.9814 59.48 33.4083 58.3654 33.013C58.0412 32.8944 57.7408 33.1237 57.4167 33.013C57.2823 33.3687 57.1875 33.6928 57.0373 33.9616C56.0886 35.6139 56.8712 34.0723 56.0886 34.3411C56.0886 33.9933 56.1677 33.5268 56.0886 33.2027C56.1439 33.1711 56.4523 33.0525 56.4681 33.013C56.555 32.7363 56.6578 32.7758 56.8475 32.6335C56.6973 32.2224 56.5234 31.7876 56.4681 31.4951C56.1281 31.6533 54.9423 32.1513 54.5708 32.0643C54.5312 32.0564 54.0964 31.5189 54.0016 31.4951C53.7802 31.4319 53.4482 31.5742 53.2427 31.4951C53.0925 31.6374 52.6498 32.3806 52.4837 32.4438C52.2782 32.507 51.9146 32.341 51.7248 32.4438C52.3889 32.4438 51.3533 29.9931 51.3454 29.9773C52.3177 29.6137 52.3573 29.503 53.0529 29.0287C52.966 28.6966 53.0529 28.2302 53.0529 27.8903C52.2229 27.7322 52.0569 27.6136 50.9659 27.7006C50.7208 27.2025 50.7841 27.2658 50.3967 26.9416C49.8117 27.2974 49.7406 27.5345 48.8789 27.8903C48.6575 29.8192 48.7761 29.7955 50.3967 29.7876C50.0015 30.5781 50.0726 30.8706 49.8275 31.8746C49.3532 31.2501 48.6654 30.5307 47.9302 30.167C47.867 30.167 47.8037 30.167 47.7405 30.167C47.4164 29.5109 47.6535 28.586 47.5508 27.8903C47.954 27.8112 47.9065 27.8903 48.12 27.7006C48.3967 27.4397 49.0449 27.242 49.2583 26.9416C49.3453 26.8072 49.4165 26.1511 49.2583 26.3724C49.203 26.3408 48.9896 25.6689 48.8789 25.6135C47.9777 25.1471 46.61 25.7953 45.8432 25.6135C45.3056 25.4791 45.0289 24.2696 44.5151 24.0957H44.1356C44.025 24.2696 43.6929 24.151 43.5664 24.2854ZM100.106 0.37946C99.9162 0.909122 100.232 1.32811 100.296 1.70757C100.09 1.7471 99.9952 2.05541 99.9162 2.08703C99.2284 2.31628 98.3509 1.9052 97.6394 2.08703C97.26 2.17399 96.7224 2.94872 96.3113 3.03568C95.4338 3.2096 94.9674 2.6325 94.2243 3.22541C93.8686 3.49419 93.1017 5.91325 92.8962 6.45081C92.6907 6.34014 92.5404 6.52987 92.327 6.45081C92.1136 6.36385 91.8369 5.79466 91.5681 5.69189C89.8289 4.98831 89.8921 6.41129 89.1016 7.02C88.8091 7.23345 88.3111 7.23345 87.9632 7.39946C87.9632 7.39946 87.8209 6.83818 87.7735 6.64054C87.9948 6.435 88.6352 6.20575 88.7221 5.88162C88.7775 5.66818 88.6352 5.32034 88.7221 5.1227C88.5561 4.98831 88.3822 5.01203 88.3427 4.74324C87.9948 4.74324 87.5442 4.8223 87.2043 4.74324C87.0146 5.00412 86.5165 5.38358 86.4454 5.69189C86.4059 5.81838 86.5244 6.12669 86.4454 6.26108C86.3031 6.45872 85.56 6.61683 85.4967 6.83027C85.2121 7.69196 85.6865 8.34021 85.8762 8.9173H85.4967C85.22 9.00426 84.6588 10.0003 84.7378 10.4351C84.7615 10.5932 85.2438 10.8937 85.307 11.0043C85.3702 11.1387 85.394 11.6763 85.4967 11.7632C85.6548 11.8976 85.9394 11.7791 86.0659 11.953C85.726 12.6724 85.7576 12.9807 85.4967 13.8503C85.394 13.787 85.0303 13.8503 84.9275 13.8503C84.4295 12.7989 84.303 13.1862 84.5481 11.5735C84.3583 11.4866 83.9552 11.0439 83.7892 11.0043C83.22 10.8541 82.4452 11.1624 81.8919 11.0043C81.7021 10.9411 81.5915 10.3166 81.3227 10.2454C81.1171 10.1822 80.4136 10.3956 80.5638 10.4351C80.3345 10.8383 80.0499 11.2336 79.8048 11.7632C79.7732 11.8265 79.4412 11.8976 79.4254 11.953C79.2989 12.2613 79.457 12.87 79.2356 13.0914C78.8878 13.4076 78.2712 13.1704 77.9075 13.4708C77.6388 13.6764 77.117 16.4274 77.5281 16.6962C78.1131 17.0757 78.4609 16.712 78.8562 16.5065C79.1566 16.3484 78.9906 16.1349 79.0459 15.7476C79.1724 15.7871 79.6151 15.9373 79.6151 15.9373C79.5044 16.5065 79.4649 16.6172 79.4254 17.2654C79.2198 17.3049 79.125 17.6132 79.0459 17.6449C78.4688 17.8425 77.5518 17.4947 76.9589 17.6449L76.7692 18.0243C76.4608 18.222 76.1921 18.0401 75.8205 18.2141C76.0261 17.2022 76.1288 16.6172 76.3897 15.7476C76.034 15.5974 76.2948 15.7318 76.2 15.3681C75.2908 15.297 74.4845 15.0045 73.9232 15.7476C73.1801 16.712 73.4568 17.6923 73.9232 18.5935C73.5438 19.052 72.8876 19.5817 72.7848 20.3011C72.7532 20.5303 72.8955 21.0521 72.7848 21.2497C72.7453 21.3051 71.9231 21.4158 71.8362 21.4395C71.7729 21.811 71.7888 22.2774 71.6465 22.7676C71.6781 22.7755 72.3263 22.8941 72.4054 22.9573C72.6109 23.1312 72.5872 23.7558 72.7848 23.906C72.3738 23.8901 70.2472 24.0878 69.7492 24.4751C69.2748 24.8309 69.9942 26.7598 69.7492 27.5108C69.6148 27.9061 69.006 28.3093 68.8005 28.6492C67.9388 30.0247 67.3143 31.0603 66.334 32.2541C66.168 32.4517 65.67 32.6335 65.5751 33.013C64.9822 35.3451 66.1443 34.4992 66.7135 34.7206C66.8479 34.768 67.4566 35.3293 67.6621 35.4795C67.3143 36.2226 66.4526 37.3926 67.0929 38.5151C67.2036 38.7128 67.7333 38.8314 67.8519 39.0843C67.9783 39.361 67.5831 39.2187 67.6621 39.6535C67.844 40.7682 69.093 40.7919 70.1286 40.7919C70.0179 40.8314 69.4013 41.3532 69.3697 41.3611C67.5356 41.8987 67.8123 41.1002 67.0929 42.8789C66.2471 41.7564 65.6067 41.4876 63.8675 41.1714C63.7252 41.4718 63.5197 41.535 63.2983 41.7406C63.6383 42.6022 63.6541 43.0133 64.0573 43.8276C63.7569 44.0252 63.1402 44.294 62.9189 44.5865C62.7054 44.8474 62.7687 45.3138 62.5394 45.5351C62.3418 45.717 62.0098 45.5747 61.7805 45.7249C61.5354 45.8751 61.2034 46.4364 61.0216 46.6735C61.1006 46.8079 61.0216 47.2743 61.0216 47.4324C61.986 47.6775 62.0967 47.7803 63.2983 47.6222C63.1956 47.8277 63.3853 47.9621 63.2983 48.1914L62.9189 48.3811C62.5078 49.0056 62.7054 49.3772 62.5394 50.2784C62.658 50.3416 63.2272 50.5551 63.2983 50.6579C63.8359 51.3931 64.1126 52.0176 64.6265 52.7449C64.2549 52.99 63.243 53.4327 63.1086 53.8833C63.0058 54.2074 63.2035 54.4999 63.1086 54.8319C63.6067 54.9663 64.4842 55.1323 65.0059 55.4011C65.1166 55.4564 65.4012 55.9229 65.5751 55.9703C65.9071 56.0493 66.1838 55.8833 66.5238 55.9703C66.4131 56.4051 66.3103 56.8241 66.1443 57.4881C65.67 57.5039 65.6146 57.1245 65.0059 57.2984C64.8952 57.33 64.6106 57.7806 64.4367 57.8676C65.164 59.2115 64.3498 58.8479 66.334 59.006C66.5158 59.5119 66.7214 60.089 66.9032 60.5238C66.9665 60.5238 67.0297 60.5238 67.0929 60.5238C67.2431 61.3222 66.84 61.6068 66.9032 62.4211C66.9506 63.101 67.5515 64.4686 67.6621 65.0773C67.7412 65.5121 67.5119 65.9864 67.6621 66.4054C67.6858 66.4845 67.9942 66.5794 68.0416 66.7849C69.6148 66.2315 68.5159 67.109 69.5594 65.8362C69.765 65.939 69.9073 65.7493 70.1286 65.8362C70.184 65.852 70.5713 66.3738 70.6978 66.4054C71.5121 66.5873 71.6306 66.0576 72.4054 66.4054C73.2433 66.7849 72.3184 67.3462 72.2156 67.7335C72.1603 67.947 72.2947 68.279 72.2156 68.4925C73.6149 69.4964 74.1288 70.0735 76.2 70.0103C76.3106 69.7494 76.3897 69.3146 76.5794 69.0616C76.7217 68.8561 77.1961 68.8482 77.3384 68.6822V70.7692C77.3858 70.9985 78.4372 72.2871 78.6665 72.6665C79.1803 72.627 79.6625 72.6665 80.1843 72.6665C80.2475 72.54 80.4531 71.9313 80.5638 71.9076C82.2713 71.5202 82.7298 73.378 83.5994 73.6152C84.137 73.7575 84.4453 73.5045 84.9275 73.4254C85.1094 73.6547 85.2042 74.2713 85.4967 74.3741C85.7023 74.4373 86.058 74.2634 86.2556 74.3741C86.2873 74.1764 86.6035 74.0737 86.6351 73.9946C86.7379 73.6705 86.5402 73.3701 86.6351 73.046C86.4612 73.0144 85.6153 72.9906 85.307 72.8562C84.975 72.706 84.8327 71.8127 84.5481 71.7179H84.1686C84.0659 71.5123 84.2714 71.1566 84.1686 70.9589C84.303 70.7534 84.6271 70.4293 84.7378 70.2C84.9908 70.4214 85.5125 70.4609 85.6865 70.7692C85.7813 70.951 85.6232 71.3305 85.6865 71.5281C85.7655 71.8206 86.2794 72.0499 86.4454 72.2871C86.809 72.2159 87.2201 72.374 87.5838 72.2871C88.2399 72.1369 88.398 71.3779 89.2913 71.3384C90.319 71.291 91.2835 72.2791 92.7065 71.9076C93.6709 71.6467 93.4338 70.4056 94.0346 70.0103C94.6986 69.5676 95.6315 69.8996 96.5011 69.6308C96.7066 69.5597 97.0307 69.1644 97.26 69.0616C97.26 68.8956 97.1809 68.445 97.26 68.3027C97.3627 68.0972 97.7027 68.1683 97.8292 67.9233C98.7146 68.2079 99.845 68.8324 100.865 68.3027C101.11 68.1683 101.228 67.5043 101.434 67.3541C101.624 67.2039 101.98 67.275 102.193 67.1643C102.375 67.0616 102.762 66.5003 102.952 66.4054C103.395 66.1683 103.845 66.192 104.28 66.026C104.28 66.026 104.525 65.1406 104.47 64.8876C104.399 64.5951 103.766 64.3421 103.711 64.1287C103.561 63.5753 103.956 63.6464 103.901 63.18C104.169 62.9824 104.288 62.6899 104.47 62.4211C105.213 62.5239 106.051 62.7531 106.746 62.4211C107.165 62.2156 107.039 61.7887 107.316 61.4725C107.687 61.0298 108.557 60.6582 109.023 60.3341C108.944 59.7175 108.754 59.0929 108.833 58.6265C108.905 58.1996 109.592 57.7964 109.782 57.4881C110.027 57.077 109.956 56.7845 110.162 56.3497C110.098 56.3023 109.616 56.0414 109.592 55.9703C109.505 55.7489 109.695 55.6066 109.592 55.4011C111.102 54.326 111.387 53.7489 109.592 52.7449C110.715 52.1599 111.695 51.5591 112.818 51.0373C112.731 50.7843 112.818 50.3575 112.818 50.0887C112.596 49.9859 112.264 49.5827 112.059 49.5195C111.3 49.2823 110.834 49.5432 110.351 49.14C110.154 48.9661 110.241 48.5155 110.162 48.1914C109.743 48.3416 109.869 47.6617 109.782 47.4324C109.814 47.4324 110.841 47.5036 110.541 47.6222C111.766 47.4799 113.893 47.3297 112.818 45.7249C112.715 45.5747 112.106 45.4956 112.059 45.3454C111.94 44.9739 112.399 44.4363 112.249 43.8276C112.122 43.3454 111.419 43.2505 111.3 43.0687C110.913 42.4758 110.739 42.3018 111.49 41.9303C111.395 40.6338 111.332 40.6812 112.059 40.033C112.098 39.9935 112.565 40.033 112.628 40.033C112.66 39.8195 112.644 38.9499 112.818 38.7049L113.956 38.1357C113.695 37.3372 113.387 36.5783 113.577 36.0487C113.624 35.8985 114.114 35.432 114.146 35.2897C114.217 34.847 113.885 35.0131 113.956 34.7206C113.735 34.768 113.213 34.9103 113.197 34.9103C112.723 36.5072 112.897 37.0526 111.869 35.6692C111.363 35.7324 111.426 35.9143 111.11 36.0487C111.11 36.0487 111.079 34.8549 111.11 34.5308C112.628 34.183 112.059 34.4439 112.818 33.3924C112.984 33.511 113.189 33.3134 113.387 33.3924C113.585 33.4715 113.624 34.0486 113.766 34.1514C114.644 34.7759 115.822 34.349 116.612 34.1514C116.525 33.7798 116.715 33.3687 116.612 33.013C116.549 32.7916 115.917 32.3489 115.853 32.0643C115.798 31.8509 115.743 31.0208 116.043 31.1157V30.7362C116.004 30.6176 115.498 30.2224 115.474 30.167C115.427 30.0564 115.521 29.7006 115.474 29.5978C116.881 28.9812 117.063 28.8705 117.751 27.5108L118.13 27.1314C118.193 26.7203 117.798 26.4041 117.941 25.8033C118.012 25.4712 118.644 25.0601 118.699 24.6649C118.755 24.2459 118.383 23.7795 118.51 23.147C118.589 22.7676 119.371 22.1272 119.458 21.8189C119.569 21.4078 119.387 20.9098 119.458 20.4908C118.209 19.7635 118.273 20.0718 118.13 18.2141C118.439 18.0164 118.241 18.048 118.32 17.6449H118.699C118.715 18.0243 118.668 18.6014 118.699 19.1627C118.731 19.1548 119.751 19.1311 119.458 18.973C119.53 18.7437 119.838 18.0006 120.028 17.8346C120.051 17.803 120.035 17.3049 120.028 17.2654C119.949 16.9571 119.466 16.5855 119.269 16.3168C119.419 16.0638 119.703 15.7792 119.838 15.5578C119.972 15.3286 120.367 14.7673 120.407 14.6092C120.605 13.708 120.043 12.957 120.028 12.5222C119.996 11.7632 120.486 11.3759 120.407 10.4351L120.028 9.86595C119.593 7.77102 119.933 8.09514 117.941 7.58919C117.854 7.96865 117.648 8.67223 117.561 9.10703C117.197 9.2019 117.324 8.94102 117.182 9.29676C116.518 9.26514 115.68 9.13865 115.284 9.10703C115.363 7.65244 115.269 7.13068 114.905 5.88162C114.351 5.75514 113.419 5.23338 112.628 5.50216C112.486 5.54169 112.264 5.96858 112.059 6.07135C112.059 6.50615 112.122 6.95676 112.059 7.39946H111.679C111.49 7.00419 111.679 6.79865 111.49 6.45081C111.221 5.98439 110.272 5.57331 110.162 4.93297C109.98 3.85784 110.683 3.83412 110.541 2.84595C110.502 2.57716 108.881 0.426892 108.644 0.37946C107.592 0.158108 107.442 0.869595 106.936 1.13838C106.32 1.4625 105.6 1.62851 105.039 1.8973C105.347 3.14635 106.075 5.46264 103.711 4.93297C102.873 4.74324 103.102 4.16615 102.762 3.41514C102.707 3.28865 102.217 3.16216 102.193 3.03568C102.019 2.16608 102.651 1.40716 102.193 0.569189C101.916 0.0790541 101.236 0.229257 100.675 0C100.628 0.110676 100.138 0.268784 100.106 0.37946Z" fill="white"/>
<path d="M121.063 169.887C122.977 169.887 124.621 171.373 124.621 173.397C124.621 175.437 122.984 176.923 121.063 176.923C119.127 176.923 117.49 175.437 117.49 173.397C117.49 171.373 119.135 169.887 121.063 169.887ZM121.063 170.456C119.435 170.456 118.17 171.721 118.17 173.397C118.17 175.113 119.427 176.354 121.063 176.354C122.676 176.354 123.933 175.113 123.933 173.397C123.941 171.721 122.676 170.456 121.063 170.456ZM120.32 175.437H119.696V171.381H121.253C122.218 171.381 122.692 171.745 122.692 172.536C122.692 173.263 122.233 173.579 121.633 173.65L122.787 175.429H122.107L121.024 173.666H120.32V175.437ZM120.32 173.16H121.056C121.815 173.16 122.06 172.939 122.06 172.496C122.06 172.109 121.87 171.887 121.158 171.887H120.312V173.16H120.32Z" fill="white"/>
</g>
</g>
<defs>
<clipPath id="clip0">
<path d="M0 0H188.71V180.662H0V0Z" fill="white"/>
</clipPath>
<clipPath id="clip1">
<rect width="188.71" height="180.662" fill="white"/>
</clipPath>
</defs>
</svg>
