<?xml version="1.0" standalone="no"?>
<!DOCTYPE svg PUBLIC "-//W3C//DTD SVG 20010904//EN"
 "http://www.w3.org/TR/2001/REC-SVG-20010904/DTD/svg10.dtd">
<svg version="1.0" xmlns="http://www.w3.org/2000/svg"
 width="500.000000pt" height="500.000000pt" viewBox="0 0 500.000000 500.000000"
 preserveAspectRatio="xMidYMid meet">
<metadata>
Created by potrace 1.11, written by Peter Selinger 2001-2013
</metadata>
<g transform="translate(0.000000,500.000000) scale(0.100000,-0.100000)"
fill="#000000" stroke="none">
<path d="M2654 4886 c-3 -7 -4 -19 -2 -27 2 -9 -8 -15 -31 -17 -19 -2 -44 -10
-55 -18 -11 -7 -30 -11 -43 -8 -20 5 -26 0 -44 -44 l-21 -50 -29 16 c-28 17
-29 16 -54 -10 -25 -27 -45 -36 -45 -20 0 4 5 13 11 19 14 14 5 43 -14 43 -21
0 -68 -66 -61 -84 3 -8 -1 -25 -9 -36 -12 -17 -12 -26 -3 -45 6 -14 14 -25 17
-25 3 0 4 -11 1 -25 -6 -31 -26 -27 -30 6 -5 33 -18 46 -44 44 -13 -1 -31 4
-40 13 -16 13 -18 12 -29 -12 -7 -14 -15 -26 -19 -26 -4 0 -10 -9 -13 -20 -3
-11 -12 -20 -20 -20 -15 0 -27 -29 -27 -67 0 -27 34 -32 44 -7 9 24 19 10 11
-15 -4 -14 -15 -21 -31 -21 -14 0 -34 -5 -45 -10 -18 -10 -19 -8 -13 30 6 39
6 40 -23 40 -34 0 -55 -32 -43 -65 4 -12 2 -28 -6 -40 -8 -11 -14 -27 -14 -36
0 -9 -7 -19 -15 -23 -19 -7 -19 -23 1 -44 15 -15 13 -17 -27 -26 -43 -11 -44
-12 -41 -48 3 -36 0 -41 -107 -189 -16 -22 -8 -51 12 -43 25 9 38 -19 25 -54
-10 -26 -9 -34 5 -50 9 -10 14 -22 10 -26 -12 -12 27 -35 45 -28 15 5 15 4 3
-11 -8 -10 -16 -15 -19 -12 -3 3 -16 -2 -30 -11 -21 -14 -26 -14 -40 -1 -24
20 -60 27 -65 13 -3 -7 -3 -23 0 -37 4 -24 -36 -79 -58 -79 -6 0 -9 -10 -7
-22 2 -17 11 -24 31 -26 20 -3 26 -7 19 -15 -20 -25 -16 -51 12 -79 l29 -29
-22 -23 c-29 -30 -26 -43 9 -51 16 -4 30 -11 30 -16 0 -5 7 -9 15 -9 8 0 15
-3 15 -7 0 -15 -15 -28 -30 -28 -27 0 -23 -34 4 -41 27 -6 39 -30 42 -79 6
-82 17 -125 33 -125 9 0 22 5 28 11 8 8 17 8 31 0 10 -6 22 -8 25 -4 3 3 13 3
22 -1 13 -5 14 -10 4 -28 -10 -19 -8 -24 15 -43 32 -26 81 -31 90 -10 9 24 26
17 26 -10 0 -38 28 -75 56 -75 13 0 24 5 24 10 0 19 37 10 60 -15 15 -16 30
-23 42 -19 11 3 20 0 24 -9 6 -18 41 -11 41 8 0 8 -10 16 -21 19 -24 6 -50 42
-41 56 11 17 25 11 35 -15 11 -28 44 -33 74 -10 13 10 25 11 43 4 47 -18 77
-11 95 21 10 17 21 29 25 28 22 -6 73 13 73 28 0 13 7 15 40 9 35 -6 44 -3 77
24 21 17 43 31 49 31 18 0 25 29 12 50 -15 24 7 54 35 46 12 -3 30 6 49 25 17
16 35 29 40 29 5 0 7 13 5 29 -4 21 1 35 14 47 21 19 25 40 8 46 -6 2 -1 14
10 27 19 22 20 26 5 42 -14 16 -12 19 25 40 23 12 41 28 41 34 0 18 -22 35
-47 35 -13 0 -23 4 -23 9 0 5 -3 17 -7 27 -5 13 -3 16 10 11 19 -7 77 11 77
23 0 5 -7 16 -16 25 -9 8 -13 22 -10 30 3 8 -5 24 -17 36 -14 14 -18 23 -10
26 7 2 10 10 7 18 -3 8 3 22 15 31 11 10 18 21 15 25 -3 5 4 14 15 21 15 9 18
19 14 40 -3 16 0 34 7 43 10 12 10 15 -3 15 -9 0 -18 -9 -22 -19 -5 -16 -9
-17 -30 -7 -32 14 -31 20 6 47 29 20 32 21 41 6 9 -17 34 -22 62 -11 18 7 22
39 6 49 -6 4 -10 14 -8 23 1 10 -1 23 -5 30 -5 8 5 25 29 47 24 23 35 41 32
53 -3 10 1 27 8 36 7 10 10 25 7 33 -3 8 3 30 13 49 19 35 19 36 -3 54 -23 18
-34 78 -12 65 6 -4 8 -13 5 -21 -3 -8 1 -14 9 -14 18 0 31 48 17 62 -8 8 -7
17 3 32 17 26 14 150 -4 184 -15 27 -47 29 -54 2 -7 -27 -64 -29 -64 -2 1 60
-4 70 -32 80 -32 11 -45 4 -54 -33 -5 -19 -5 -19 -12 2 -4 12 -14 24 -22 27
-11 5 -13 15 -8 44 5 34 2 43 -24 71 l-30 32 -43 -25 c-37 -22 -42 -29 -42
-63 -1 -38 -3 -40 -46 -34 -5 0 -10 7 -10 15 0 7 -7 19 -15 26 -10 9 -12 17
-5 30 6 12 5 23 -4 35 -16 22 -45 28 -52 11z"/>
<path d="M1157 4253 c-4 -3 -7 -14 -7 -24 0 -25 -40 -36 -55 -15 -16 21 -54
21 -61 -1 -3 -10 -10 -26 -16 -37 -6 -12 -6 -22 1 -29 13 -13 15 -37 4 -37 -5
0 -17 13 -28 30 -31 45 -128 70 -141 35 -4 -8 -16 -15 -29 -15 -16 0 -30 -11
-44 -36 -21 -35 -22 -36 -42 -18 -19 17 -20 17 -47 -3 -15 -11 -31 -34 -36
-52 -6 -20 -15 -31 -27 -31 -10 0 -23 -9 -29 -20 -6 -11 -18 -20 -26 -20 -8 0
-30 -11 -49 -26 -18 -14 -46 -26 -62 -28 -15 -1 -27 -8 -26 -14 2 -6 -10 -18
-26 -26 -16 -9 -43 -33 -60 -54 -23 -30 -36 -38 -53 -35 -13 2 -35 0 -50 -6
-23 -9 -26 -14 -21 -42 4 -25 2 -31 -10 -26 -21 8 -56 -19 -52 -40 2 -10 4
-22 4 -27 1 -4 8 -5 16 -2 12 4 15 0 12 -22 -2 -17 -11 -28 -23 -31 -31 -5
-42 -19 -36 -48 4 -23 2 -25 -19 -20 -13 3 -30 2 -38 -2 -14 -9 -15 -16 -27
-104 -4 -31 -14 -53 -27 -62 -15 -11 -18 -20 -12 -42 4 -15 6 -41 6 -58 -4
-89 -2 -116 10 -131 11 -14 11 -18 -5 -29 -12 -10 -17 -24 -15 -49 2 -19 0
-38 -4 -42 -11 -11 -8 -49 5 -62 17 -17 58 -15 81 6 20 16 20 16 13 -2 -3 -11
0 -28 8 -41 18 -27 6 -49 -22 -41 -50 16 -38 -51 13 -77 36 -17 36 -17 60 9
14 15 25 25 26 23 0 -2 2 -27 2 -56 2 -59 8 -68 45 -68 34 -1 38 -18 7 -35
-33 -18 -32 -46 4 -64 26 -14 31 -13 65 4 20 11 43 20 51 20 27 0 16 -16 -20
-28 -29 -11 -33 -16 -26 -35 6 -16 17 -22 42 -23 26 0 34 -5 42 -27 7 -21 15
-27 40 -28 18 0 41 -2 52 -4 11 -2 27 3 36 11 10 9 43 16 84 18 42 3 71 9 76
18 12 19 11 26 -7 36 -12 7 -13 10 -2 19 25 20 74 31 91 21 39 -21 137 11 137
46 0 6 16 19 34 27 34 16 35 15 38 -5 4 -28 36 -33 54 -7 19 27 40 27 47 1 7
-28 35 -25 49 5 6 14 14 25 17 26 31 4 45 10 55 25 7 9 17 15 22 12 16 -10 56
11 51 26 -4 9 14 35 43 64 27 27 49 58 49 68 1 11 2 32 3 48 4 41 -24 57 -53
31 -22 -20 -22 -20 -11 1 6 12 24 30 39 40 28 19 33 21 64 23 27 2 30 39 6 56
-19 13 -20 17 -7 25 8 5 20 10 25 10 18 1 56 48 65 81 8 26 6 37 -6 51 -22 23
-11 52 16 43 47 -15 67 58 27 98 -13 13 -17 25 -12 40 5 12 10 49 12 82 3 37
10 63 19 68 22 13 16 46 -13 73 l-28 24 35 30 c30 27 33 33 22 50 -6 11 -12
33 -12 49 0 24 3 28 20 24 15 -4 20 0 20 15 0 27 -21 75 -37 85 -8 5 -9 15 -4
30 18 47 -16 64 -50 25 -18 -22 -18 -22 -19 -2 0 11 4 24 10 30 18 18 -5 36
-33 25 -17 -7 -27 -7 -27 -1 0 15 -26 12 -40 -5 -13 -15 -35 -11 -25 5 3 5 1
18 -4 29 -9 15 -6 22 14 35 34 22 32 46 -3 46 -15 0 -33 5 -40 12 -9 9 -16 7
-32 -7 -32 -29 -25 -62 13 -56 8 1 10 -33 1 -42 -4 -3 -19 4 -35 15 -36 27
-37 60 -3 85 39 28 23 55 -30 51 -33 -2 -45 2 -59 20 -19 23 -29 27 -40 15z"/>
<path d="M4267 4176 c-3 -8 -15 -12 -30 -9 -17 3 -28 -2 -40 -21 -14 -20 -25
-26 -55 -25 -20 0 -47 -2 -59 -5 -13 -3 -24 1 -27 10 -9 23 -39 18 -31 -5 5
-17 -11 -44 -38 -63 -2 -2 -11 3 -20 10 -13 11 -14 18 -5 32 9 14 7 22 -11 41
-17 19 -24 21 -30 10 -5 -8 -7 -27 -4 -42 4 -27 2 -29 -26 -29 -16 0 -33 -5
-36 -11 -4 -6 -17 -14 -28 -18 -17 -6 -24 -3 -32 13 -14 27 -38 31 -69 10 -34
-22 -33 -28 10 -53 41 -24 38 -48 -4 -27 -29 15 -59 13 -75 -3 -19 -19 -45
-12 -51 13 -12 46 -63 43 -73 -5 -4 -23 -12 -30 -42 -36 -20 -4 -39 -8 -43 -9
-5 -1 -12 -2 -17 -3 -5 0 -12 -13 -16 -28 -6 -26 -8 -27 -20 -10 -17 24 -43
12 -60 -29 -10 -25 -20 -33 -37 -32 -13 0 -29 0 -35 -1 -16 -1 -17 -41 -2 -41
5 0 8 -4 4 -9 -3 -5 -16 -8 -29 -5 -30 5 -54 -20 -37 -40 8 -10 9 -16 1 -21
-5 -3 -10 -15 -10 -25 0 -13 -9 -22 -27 -26 -57 -12 -72 -22 -68 -46 3 -12 12
-26 20 -31 9 -5 20 -20 26 -33 5 -14 13 -22 19 -19 15 9 30 -4 23 -20 -3 -9
-18 -15 -38 -15 -29 0 -34 4 -37 28 -2 19 -9 27 -23 27 -16 0 -20 -6 -18 -32
2 -26 -5 -39 -41 -73 -43 -41 -51 -70 -20 -70 8 0 14 -5 14 -11 0 -5 -4 -8 -8
-5 -16 9 -53 -34 -47 -54 3 -11 -5 -33 -20 -55 -26 -39 -32 -70 -15 -80 17
-11 11 -22 -25 -46 -33 -23 -50 -69 -25 -69 6 0 10 -7 10 -15 0 -8 -4 -15 -9
-15 -28 0 -35 -105 -10 -141 17 -24 17 -30 4 -55 -16 -32 -6 -59 22 -59 14 0
19 -10 23 -52 5 -52 25 -79 73 -96 11 -4 17 -17 17 -36 0 -23 5 -30 26 -34 16
-3 28 0 31 9 8 21 18 17 31 -11 9 -19 19 -25 42 -25 33 0 38 -11 15 -30 -22
-19 -8 -28 53 -36 35 -4 52 -2 52 5 0 19 28 12 35 -10 10 -29 56 -45 68 -23
25 44 68 67 82 44 3 -5 17 -10 31 -10 27 0 65 -18 77 -37 4 -7 26 -17 48 -23
34 -10 44 -9 59 5 13 12 28 14 53 10 32 -6 36 -4 48 24 10 23 18 29 34 25 12
-3 31 3 47 15 14 12 31 21 36 21 6 0 12 5 14 12 3 7 22 13 43 13 26 0 41 6 49
19 8 14 8 20 -1 23 -21 7 -15 22 7 18 30 -6 79 45 73 77 -4 23 -2 25 26 23 30
-2 71 18 71 35 0 5 -11 12 -25 16 l-25 6 25 30 c24 29 25 32 9 49 -9 11 -23
19 -31 19 -7 0 -13 5 -13 10 0 6 5 10 10 10 6 0 10 7 10 17 0 15 1 15 18 0 16
-15 20 -15 50 3 18 11 36 27 39 37 8 20 -22 43 -55 43 -15 0 -21 4 -16 12 4 7
8 26 9 43 0 18 5 29 13 27 7 -1 20 15 29 35 15 37 16 38 25 14 7 -19 5 -27 -7
-33 -20 -12 -19 -34 2 -43 12 -4 25 2 39 21 19 23 23 25 31 10 8 -15 14 -15
35 -5 20 9 28 21 33 55 3 24 3 49 -1 55 -3 6 0 22 7 36 12 22 11 27 -6 40 -14
11 -16 17 -7 20 6 3 12 12 12 22 0 9 5 22 10 27 8 8 7 20 0 40 -10 26 -8 30
16 48 15 11 34 21 43 22 9 2 28 6 43 10 23 5 29 2 39 -20 7 -14 15 -26 19 -26
10 0 21 60 14 71 -3 5 9 26 26 45 36 41 28 64 -21 64 -34 0 -44 13 -23 31 15
13 15 30 -1 122 -4 17 3 35 19 54 26 31 28 80 6 134 -12 28 -27 34 -72 30 -9
-1 -22 7 -30 17 -7 11 -22 22 -34 26 -12 3 -29 24 -39 46 -20 45 -40 52 -49
16 -3 -13 -14 -26 -24 -28 -24 -7 -66 36 -58 58 4 10 -1 25 -10 35 -16 18 -16
19 5 19 13 0 34 -9 48 -19 13 -11 31 -17 39 -14 25 9 15 42 -18 63 -39 24 -44
24 -51 6z m-167 -1402 c0 -3 -6 -11 -13 -19 -16 -15 -43 -3 -33 14 7 11 46 16
46 5z"/>
<path d="M2397 2854 c-4 -4 -7 -21 -7 -39 0 -33 -34 -79 -53 -72 -7 2 -12 15
-12 28 0 32 -12 49 -30 42 -9 -3 -21 -1 -28 5 -14 11 -45 8 -60 -7 -15 -15
-44 -14 -49 1 -3 7 -21 12 -43 11 -44 -1 -65 -22 -65 -63 0 -15 -10 -36 -23
-49 -21 -19 -25 -20 -37 -6 -14 17 -56 20 -65 5 -11 -18 -39 -11 -60 16 -20
25 -22 26 -39 9 -10 -10 -15 -26 -13 -36 6 -21 -34 -40 -41 -20 -6 17 -30 13
-61 -10 -16 -12 -34 -18 -40 -14 -7 4 -18 1 -26 -5 -9 -8 -15 -8 -15 -2 0 6 5
12 12 14 22 8 0 38 -24 34 -18 -3 -22 -9 -20 -28 2 -19 -3 -27 -18 -31 -14 -3
-20 -13 -20 -31 0 -29 -11 -33 -30 -10 -9 9 -26 14 -48 12 -30 -3 -36 -8 -47
-42 -8 -22 -22 -48 -33 -59 -19 -19 -20 -18 -30 13 -13 35 -47 39 -47 6 0 -11
-8 -20 -19 -22 -10 -1 -22 -7 -25 -12 -11 -17 -49 -23 -75 -11 -20 9 -29 9
-41 -1 -12 -10 -15 -10 -15 3 0 16 -37 30 -45 17 -3 -5 -18 -2 -33 6 -15 7
-34 14 -42 14 -40 0 -57 -67 -20 -77 11 -3 20 -9 20 -14 0 -12 -7 -11 -31 2
-22 11 -89 -5 -89 -22 0 -5 -7 -9 -15 -9 -8 0 -15 -4 -15 -10 0 -5 -7 -10 -15
-10 -8 0 -15 7 -15 15 0 23 -34 18 -59 -9 -12 -13 -39 -26 -61 -30 -54 -8 -96
-66 -48 -66 17 0 19 -3 11 -11 -15 -15 -68 9 -68 31 1 16 -13 30 -30 30 -15 0
-49 -66 -42 -83 5 -14 -10 -37 -24 -37 -4 0 -9 10 -11 23 -2 17 -9 21 -28 19
-14 -1 -27 -7 -28 -12 -4 -10 -13 -20 -47 -48 -9 -8 -23 -11 -33 -7 -14 6 -12
9 11 20 46 19 60 50 28 60 -26 8 -66 -9 -93 -40 -12 -14 -28 -23 -35 -21 -14
6 -32 -22 -39 -61 -4 -19 0 -26 16 -30 23 -6 27 -23 5 -23 -8 0 -19 -9 -25
-19 -5 -11 -22 -21 -36 -23 -15 -2 -32 -12 -38 -23 -13 -24 -27 -35 -37 -29
-15 9 -23 -22 -21 -75 2 -53 6 -65 20 -67 21 -3 42 -18 42 -30 0 -8 -18 -30
-40 -50 -27 -25 -39 -43 -36 -57 4 -25 34 -35 48 -15 7 10 13 8 28 -11 24 -28
18 -43 -16 -37 -21 4 -28 -1 -39 -26 -9 -23 -10 -37 -2 -49 5 -9 7 -25 2 -35
-5 -13 -9 -15 -12 -6 -6 14 -33 16 -33 2 0 -6 16 -18 35 -27 19 -9 37 -25 41
-35 3 -10 17 -26 30 -35 21 -13 23 -21 18 -51 -5 -27 -3 -38 10 -48 12 -9 19
-32 23 -81 4 -59 9 -72 36 -101 17 -17 39 -32 48 -32 22 0 49 -37 49 -67 0
-13 4 -23 9 -23 16 0 61 -46 61 -62 0 -8 -5 -19 -12 -26 -9 -9 -8 -12 4 -12 9
0 18 5 20 11 2 6 13 3 28 -9 14 -11 22 -24 17 -28 -4 -4 -12 -3 -19 4 -7 7
-17 8 -29 2 -15 -8 -16 -14 -6 -39 10 -28 14 -30 55 -25 42 4 72 -7 72 -27 0
-5 -6 -9 -14 -9 -15 0 -56 -50 -56 -69 0 -18 28 -13 39 7 5 9 23 25 39 35 30
17 31 17 37 -3 4 -11 18 -28 31 -37 17 -11 24 -23 21 -35 -3 -10 -2 -20 3 -23
4 -2 10 -17 13 -33 7 -33 29 -37 53 -11 15 17 17 17 45 -4 19 -13 41 -20 63
-19 30 2 34 -1 39 -27 4 -17 14 -32 26 -36 10 -3 21 -15 24 -25 4 -16 14 -20
44 -20 21 0 45 -6 51 -12 10 -10 17 -10 32 0 24 15 33 15 25 2 -3 -5 3 -17 14
-27 11 -9 18 -21 15 -25 -3 -5 1 -17 10 -27 9 -10 14 -25 11 -33 -5 -12 0 -14
20 -10 15 2 33 -2 43 -10 9 -8 25 -18 35 -21 9 -4 24 -22 33 -40 16 -33 19
-35 68 -33 35 1 55 6 64 18 12 17 47 14 37 -3 -3 -4 4 -13 16 -20 17 -9 23 -8
30 2 6 11 11 10 26 -3 10 -9 32 -18 48 -20 21 -2 29 -8 27 -19 -3 -18 45 -45
98 -55 19 -4 35 -15 40 -28 9 -22 44 -56 59 -56 5 0 23 8 39 17 29 17 32 17
67 0 44 -21 56 -16 51 23 -5 41 3 44 31 14 19 -21 29 -25 51 -18 36 10 86 8
89 -3 4 -11 124 -4 137 8 5 4 22 5 37 2 35 -7 46 13 30 57 -9 26 -8 32 6 37 9
4 19 1 21 -5 6 -18 30 -14 34 6 2 9 -6 24 -17 34 -20 16 -20 16 7 38 15 11 27
24 27 28 -4 22 5 31 42 46 39 16 43 16 76 -4 42 -25 51 -25 49 -3 0 12 7 19
22 21 16 3 22 -2 22 -15 0 -11 -5 -24 -11 -30 -8 -8 -8 -17 0 -32 7 -12 10
-21 9 -22 -37 -9 -49 -6 -64 16 -11 17 -25 25 -45 25 -16 0 -29 -4 -29 -10 0
-5 -12 -21 -27 -35 -22 -20 -25 -27 -14 -34 7 -5 11 -15 9 -22 -3 -8 -1 -22 4
-32 7 -14 4 -23 -13 -38 -18 -16 -21 -24 -13 -37 17 -26 60 -27 74 -3 12 24
30 28 30 7 0 -7 7 -19 15 -26 24 -20 63 2 63 35 0 34 9 42 32 27 27 -16 55
-15 70 3 7 8 17 15 23 15 6 0 19 8 29 17 15 13 21 14 27 5 4 -7 20 -15 34 -18
21 -3 28 0 32 19 4 13 5 30 3 37 -4 20 24 18 44 -2 24 -24 62 -10 66 26 2 14
-1 26 -7 26 -5 0 -17 7 -26 16 -13 13 -14 19 -4 25 8 5 18 0 27 -12 18 -25 34
-24 62 6 20 21 21 27 10 40 -10 12 -11 18 -2 24 6 3 15 18 20 31 7 19 5 28 -7
37 -13 9 -9 11 24 6 52 -6 91 14 115 62 21 41 18 61 -12 68 -11 3 -17 10 -14
16 5 7 15 7 32 -1 20 -10 27 -9 34 2 5 9 5 19 0 24 -11 11 -1 64 17 93 13 19
12 23 -6 35 -20 14 -20 15 -1 65 10 28 16 53 13 57 -12 12 -37 6 -58 -14 l-21
-20 -16 35 c-15 33 -14 37 3 59 10 13 16 26 13 29 -3 3 2 27 11 53 13 38 13
49 3 56 -7 4 -20 5 -28 2 -52 -22 -59 -18 -62 32 -3 42 -6 49 -25 52 -19 3
-24 -4 -34 -42 -10 -40 -15 -47 -47 -56 -47 -12 -57 -2 -43 43 7 19 9 47 5 61
-5 21 -3 26 13 26 10 0 27 -9 36 -21 30 -34 66 -4 53 44 -5 23 -12 27 -40 27
-29 0 -33 3 -29 23 3 14 -2 29 -12 37 -13 11 -18 10 -29 -6 -8 -10 -11 -23 -6
-29 16 -21 -4 -81 -30 -88 -26 -7 -27 28 -2 56 9 10 18 31 19 46 3 43 9 70 16
77 4 4 7 2 7 -4 0 -17 37 -15 43 3 4 8 4 24 2 35 -2 12 2 23 10 27 18 6 20 40
3 45 -7 3 -12 18 -10 34 1 16 -7 44 -18 62 -16 27 -26 33 -48 30 -22 -2 -28
-9 -30 -33 -4 -28 -16 -44 -35 -45 -5 0 -6 4 -2 9 3 5 0 13 -6 16 -7 5 -1 18
17 36 15 16 23 29 16 29 -19 0 -52 42 -52 67 0 33 45 50 71 27 15 -14 21 -14
34 -4 19 16 19 34 0 50 -11 9 -12 17 -4 31 7 15 6 21 -6 25 -8 3 -15 14 -15
23 0 10 -11 23 -25 29 -27 13 -31 32 -13 61 13 22 -3 51 -29 51 -8 0 -11 5 -8
10 4 7 13 6 27 -1 25 -14 41 0 36 32 -3 25 -32 31 -72 14 -16 -7 -17 -5 -8 12
6 11 8 23 5 27 -10 10 22 7 33 -3 5 -5 19 -5 32 0 20 8 21 11 10 31 -19 33
-28 37 -57 27 l-26 -9 28 21 c29 22 34 44 14 71 -14 18 -11 88 4 88 5 0 9 -15
9 -34 0 -19 5 -38 12 -42 15 -9 40 25 33 47 -3 10 -2 20 3 23 5 3 9 27 8 53
-1 42 -4 48 -24 51 -12 2 -22 7 -22 11 0 17 30 33 50 28 30 -8 53 19 37 44 -6
10 -20 22 -29 25 -10 3 -18 14 -18 24 0 11 -8 24 -19 29 -10 6 -22 22 -25 36
-5 20 -12 26 -29 23 -19 -3 -22 -9 -20 -40 2 -29 -2 -38 -17 -43 -29 -9 -42 2
-30 25 6 11 8 31 6 44 -3 14 2 30 10 37 22 18 17 39 -11 39 -18 0 -25 -5 -25
-20 0 -24 -37 -28 -46 -6 -8 21 -64 32 -75 15 -4 -7 -3 -19 2 -26 12 -14 2
-36 -13 -31 -6 2 -16 25 -23 50 -10 40 -9 47 6 56 15 10 17 52 2 52 -15 0 -43
-23 -43 -35 0 -19 -14 -19 -29 -1 -10 11 -9 16 4 24 24 13 16 58 -9 54 -10 -2
-26 -10 -34 -18 -12 -13 -16 -11 -31 18 -16 32 -40 46 -54 32z"/>
<path d="M4513 2608 c-5 -7 -13 -21 -16 -31 -4 -10 -11 -16 -16 -13 -15 9 -32
-20 -34 -58 -2 -39 -4 -41 -26 -27 -9 6 -22 6 -32 0 -12 -6 -19 -5 -21 2 -5
15 -90 28 -117 17 -17 -6 -22 -15 -19 -35 2 -16 -1 -29 -7 -30 -5 -2 -10 11
-10 28 0 19 -7 36 -17 43 -15 9 -23 5 -45 -19 -17 -18 -26 -38 -25 -52 4 -24
-10 -26 -49 -9 -10 4 -25 6 -35 4 -16 -2 -18 3 -16 30 4 37 -22 46 -33 12 -3
-11 -15 -20 -25 -20 -12 0 -21 -10 -25 -29 -5 -25 -11 -29 -37 -29 -23 1 -36
-6 -50 -25 -21 -29 -42 -35 -54 -15 -5 8 -2 9 9 5 11 -4 17 -1 17 7 0 8 -15
17 -35 20 -28 6 -41 2 -62 -13 -14 -12 -34 -21 -44 -21 -10 0 -21 -4 -24 -10
-3 -5 -17 -10 -30 -10 -29 0 -40 -15 -37 -52 2 -19 -2 -28 -13 -28 -11 0 -13
7 -9 29 4 16 1 32 -5 35 -11 7 -43 -6 -42 -17 5 -34 -1 -57 -14 -57 -20 0 -19
-30 1 -45 11 -8 14 -19 10 -33 -10 -29 -20 -28 -34 4 -12 24 -65 54 -97 54 -9
0 -18 -12 -21 -29 -4 -19 -16 -33 -37 -42 -22 -10 -35 -24 -42 -47 -6 -20 -14
-31 -22 -28 -19 8 -43 -4 -43 -20 0 -7 9 -18 20 -24 11 -6 18 -15 15 -21 -4
-5 -10 -7 -15 -4 -17 11 -30 -21 -21 -53 11 -39 0 -49 -24 -22 -23 25 -32 25
-46 -1 -8 -15 -8 -28 -1 -43 6 -11 12 -35 14 -53 4 -30 3 -31 -22 -26 -37 7
-46 -27 -18 -73 18 -30 19 -37 7 -52 -27 -34 -39 -61 -32 -78 6 -16 14 -27 58
-75 8 -8 22 -35 30 -59 9 -24 21 -47 27 -51 8 -5 6 -12 -6 -24 -12 -12 -16
-28 -13 -52 6 -43 11 -48 61 -52 4 -1 0 -13 -9 -28 -17 -25 -17 -27 -1 -39 10
-7 16 -18 15 -26 -3 -27 1 -37 20 -43 14 -4 19 -15 19 -36 -1 -17 3 -34 8 -37
5 -4 9 -13 10 -19 2 -29 5 -33 18 -33 8 0 21 -8 28 -18 20 -28 36 -34 59 -22
20 11 21 10 15 -28 -3 -27 -1 -42 7 -45 18 -6 47 11 47 28 0 21 17 19 29 -3 6
-11 6 -24 0 -35 -14 -24 -3 -37 32 -37 31 0 38 -17 17 -38 -10 -9 -9 -15 3
-27 13 -13 18 -12 47 5 17 11 32 26 32 34 0 14 55 30 71 20 16 -10 10 -32 -11
-37 -26 -7 -28 -47 -2 -47 10 0 27 6 38 14 17 12 42 19 85 25 17 2 16 42 -1
51 -19 10 -21 41 -3 47 5 2 16 -3 23 -12 7 -8 18 -15 26 -15 8 0 11 -8 9 -22
-5 -26 9 -38 48 -38 27 0 29 3 31 49 1 19 8 25 31 28 48 7 79 26 85 53 9 45
32 66 80 73 24 3 49 12 55 19 5 8 18 17 29 21 14 5 17 13 12 32 -5 20 -2 27
19 37 14 6 25 17 25 24 0 17 47 64 63 64 7 0 18 -5 24 -11 15 -15 43 -4 43 16
0 9 -7 18 -15 21 -23 9 -18 31 10 38 20 5 25 13 25 36 0 18 5 30 13 30 21 0
48 35 41 53 -3 9 3 24 15 36 20 20 23 20 45 6 29 -19 58 -10 54 19 -1 11 2 27
6 35 6 9 4 18 -5 25 -8 6 -14 26 -15 44 -1 27 2 32 15 26 45 -19 57 -16 71 17
9 21 24 36 40 39 19 4 24 12 25 35 0 25 4 29 30 31 17 1 33 2 38 3 14 2 7 54
-10 73 -24 26 -24 45 -2 51 12 3 20 -2 24 -14 4 -12 16 -19 30 -19 30 0 58 28
49 49 -3 9 -7 25 -9 36 -1 11 -8 20 -16 20 -8 0 -14 5 -14 10 -1 6 -6 20 -13
33 -8 14 -9 22 -2 22 5 0 20 11 31 24 13 15 29 23 41 21 14 -3 23 5 34 30 19
47 18 54 -11 67 -33 15 -32 24 5 37 46 15 38 39 -13 43 -36 3 -54 43 -27 58
24 13 26 36 5 44 -21 8 -19 29 6 44 20 13 20 14 4 39 -10 14 -18 40 -19 57 -2
35 -22 44 -51 22 -17 -13 -18 -18 -7 -36 17 -27 10 -35 -17 -20 -17 9 -22 8
-27 -5 -8 -19 -40 -20 -48 0 -3 8 -1 15 4 15 6 0 10 7 10 15 0 8 -7 15 -15 15
-8 0 -15 -4 -15 -9 0 -16 -61 -41 -101 -41 -33 0 -40 -4 -45 -25 -8 -30 -24
-23 -24 11 0 15 6 24 15 24 13 0 15 8 10 40 -5 31 -3 39 8 35 11 -5 87 20 87
29 0 1 -11 16 -24 31 l-25 29 -20 -25 c-20 -23 -22 -23 -35 -6 -10 13 -21 17
-35 12 -16 -5 -20 -1 -23 21 -3 31 -20 41 -35 22z m-325 -223 c5 -23 -17 -15
-36 13 -14 21 -14 22 9 14 13 -5 26 -17 27 -27z"/>
<path d="M2882 1968 c-15 -15 3 -48 27 -48 22 0 34 33 18 49 -14 14 -30 14
-45 -1z"/>
<path d="M2996 1551 c-15 -17 -16 -20 -1 -34 19 -19 45 -12 45 13 0 31 -25 43
-44 21z"/>
<path d="M2938 1148 c-8 -21 2 -38 23 -38 23 0 26 35 3 44 -21 8 -21 8 -26 -6z"/>
<path d="M335 960 c3 -5 11 -10 16 -10 6 0 7 5 4 10 -3 6 -11 10 -16 10 -6 0
-7 -4 -4 -10z"/>
<path d="M384 957 c-6 -18 2 -37 17 -37 10 0 7 35 -4 46 -4 4 -9 0 -13 -9z"/>
<path d="M3168 389 c-32 -12 -62 -71 -53 -106 18 -72 100 -96 154 -45 17 15
31 34 32 42 9 81 -59 136 -133 109z m80 -25 c50 -35 44 -106 -11 -129 -43 -18
-82 -2 -96 37 -16 45 -14 56 14 83 28 29 61 32 93 9z"/>
<path d="M3170 303 c0 -29 5 -53 10 -53 6 0 10 12 10 28 l1 27 22 -27 c27 -33
42 -37 26 -7 -8 15 -8 24 0 32 19 19 12 46 -11 51 -53 11 -58 6 -58 -51z m60
21 c0 -8 -9 -14 -20 -14 -19 0 -27 19 -14 33 10 9 34 -4 34 -19z"/>
</g>
</svg>
