<?xml version="1.0" encoding="utf-8"?>
<svg xmlns="http://www.w3.org/2000/svg" viewBox="0 0 30 30" fill="#5098b8"><path d="M 6 3 C 3.8026661 3 2 4.8026661 2 7 L 2 8 A 1.0001 1.0001 0 0 0 3 9 L 5 9 L 5 23 C 5 25.197334 6.8026661 27 9 27 L 24 27 L 25 27 A 1.0001 1.0001 0 0 0 25.158203 26.984375 C 27.281632 26.898608 29 25.143221 29 23 L 29 22 A 1.0001 1.0001 0 0 0 28 21 L 23 21 L 23 8 C 23 5.2504839 20.749516 3 18 3 L 6 3 z M 18 5 C 19.668484 5 21 6.3315161 21 8 L 21 21.832031 A 1.0001 1.0001 0 0 0 21 22.158203 L 21 23 C 21 23.742658 21.261659 24.401869 21.619141 25 L 9 25 C 7.8833339 25 7 24.116666 7 23 L 7 9 L 15 9 A 1.0001 1.0001 0 0 0 16 8 L 16 7 C 16 5.8833339 16.883334 5 18 5 z M 9 12 L 9 14 L 11 14 L 11 12 L 9 12 z M 13 12 L 13 14 L 19 14 L 19 12 L 13 12 z M 9 16 L 9 18 L 11 18 L 11 16 L 9 16 z M 13 16 L 13 18 L 19 18 L 19 16 L 13 16 z M 9 20 L 9 22 L 11 22 L 11 20 L 9 20 z M 13 20 L 13 22 L 19 22 L 19 20 L 13 20 z" fill="#5098b8"/></svg>
