<svg width="72" height="72" viewBox="0 0 72 72" fill="none" xmlns="http://www.w3.org/2000/svg">
<path d="M1 14C1 6.8203 6.8203 1 14 1H58C65.1797 1 71 6.8203 71 14V58C71 65.1797 65.1797 71 58 71H14C6.8203 71 1 65.1797 1 58V14Z" fill="#5098B8"/>
<path d="M1 14C1 6.8203 6.8203 1 14 1H58C65.1797 1 71 6.8203 71 14V58C71 65.1797 65.1797 71 58 71H14C6.8203 71 1 65.1797 1 58V14Z" stroke="#F2F2F2" stroke-opacity="0.498039" stroke-width="2"/>
<path d="M1 14C1 6.8203 6.8203 1 14 1H58C65.1797 1 71 6.8203 71 14V58C71 65.1797 65.1797 71 58 71H14C6.8203 71 1 65.1797 1 58V14Z" stroke="#5098B8" stroke-width="2"/>
</svg>