<?xml version="1.0" encoding="utf-8"?>
<svg xmlns="http://www.w3.org/2000/svg" viewBox="0 0 30 30" fill="#5098b8"><path d="M 9 3 C 6.2504839 3 4 5.2504839 4 8 L 4 9 A 1.0001 1.0001 0 0 0 5 10 L 16 10 A 1.0001 1.0001 0 0 0 17 9 L 17 8 C 17 6.3315161 18.331516 5 20 5 C 21.668484 5 23 6.3315161 23 8 L 23 22 L 22 22 C 22 22.702 21.872391 23.374 21.650391 24 L 23.832031 24 A 1.0001 1.0001 0 0 0 25 23 L 25 8 C 25 5.2504839 22.749516 3 20 3 L 9 3 z M 7 12 L 7 23 C 7 23.552 7.448 24 8 24 L 10.349609 24 C 10.127609 23.374 10 22.702 10 22 L 9 22 L 9 12 L 7 12 z M 13 14 A 1.0001 1.0001 0 1 0 13 16 L 19 16 A 1.0001 1.0001 0 1 0 19 14 L 13 14 z M 16 18 C 13.802706 18 12 19.802706 12 22 C 12 23.000165 12.385795 23.907469 13 24.611328 L 13 30 L 16 28 L 19 30 L 19 24.611328 C 19.614205 23.907469 20 23.000165 20 22 C 20 19.802706 18.197294 18 16 18 z M 16 20 C 17.116414 20 18 20.883586 18 22 C 18 23.116414 17.116414 24 16 24 C 14.883586 24 14 23.116414 14 22 C 14 20.883586 14.883586 20 16 20 z" fill="#5098b8"/></svg>
