<?xml version="1.0" encoding="utf-8"?>
<svg xmlns="http://www.w3.org/2000/svg" viewBox="0 0 30 30" fill="#5098b8"><path d="M 5 4 C 4.448 4 4 4.448 4 5 L 4 7 L 14 7 L 14 5 C 14 4.448 13.552 4 13 4 L 5 4 z M 17 4 C 16.448 4 16 4.448 16 5 L 16 7 L 26 7 L 26 5 C 26 4.448 25.552 4 25 4 L 17 4 z M 4 9 L 4 25 C 4 25.552 4.448 26 5 26 L 13 26 C 13.552 26 14 25.552 14 25 L 14 9 L 4 9 z M 16 9 L 16 25 C 16 25.552 16.448 26 17 26 L 25 26 C 25.552 26 26 25.552 26 25 L 26 9 L 16 9 z M 9 10.65625 C 9.122375 10.65625 9.2454688 10.725734 9.2929688 10.865234 L 9.9960938 12.949219 L 12.195312 12.974609 C 12.489313 12.977609 12.612 13.353297 12.375 13.529297 L 10.611328 14.84375 L 11.265625 16.941406 C 11.353625 17.222406 11.034922 17.456156 10.794922 17.285156 L 9 16.013672 L 7.2050781 17.285156 C 6.9640781 17.456156 6.646375 17.223406 6.734375 16.941406 L 7.3886719 14.84375 L 5.625 13.529297 C 5.389 13.353297 5.5116406 12.978609 5.8066406 12.974609 L 8.0058594 12.949219 L 8.7089844 10.865234 C 8.7559844 10.725734 8.877625 10.65625 9 10.65625 z M 21 10.65625 C 21.122375 10.65625 21.245469 10.725734 21.292969 10.865234 L 21.996094 12.949219 L 24.195312 12.974609 C 24.489312 12.977609 24.612 13.353297 24.375 13.529297 L 22.611328 14.84375 L 23.265625 16.941406 C 23.353625 17.222406 23.034922 17.456156 22.794922 17.285156 L 21 16.013672 L 19.205078 17.285156 C 18.964078 17.456156 18.646375 17.223406 18.734375 16.941406 L 19.388672 14.84375 L 17.625 13.529297 C 17.389 13.353297 17.511641 12.978609 17.806641 12.974609 L 20.005859 12.949219 L 20.708984 10.865234 C 20.755984 10.725734 20.877625 10.65625 21 10.65625 z M 7 21 L 11 21 C 11.552 21 12 21.448 12 22 C 12 22.552 11.552 23 11 23 L 7 23 C 6.448 23 6 22.552 6 22 C 6 21.448 6.448 21 7 21 z M 19 21 L 23 21 C 23.552 21 24 21.448 24 22 C 24 22.552 23.552 23 23 23 L 19 23 C 18.448 23 18 22.552 18 22 C 18 21.448 18.448 21 19 21 z" fill="#5098b8"/></svg>
